  0
SECTION
  2
HEADER
  9
$ACADVER
  1
AC1009
  0
ENDSEC
  0
SECTION
  2
ENTITIES
  0
POLYLINE
  5
90
  8
Layer_2
  62
92
  66
1
  10
0
  20
0
  30
0
  0
VERTEX
  5
90
  8
Layer_2
  10
210.75037
  20
154.01611
  0
VERTEX
  5
91
  8
Layer_2
  10
210.65662
  20
154.04541
  0
VERTEX
  5
92
  8
Layer_2
  10
210.57166
  20
154.09131
  0
VERTEX
  5
93
  8
Layer_2
  10
210.49744
  20
154.15234
  0
VERTEX
  5
94
  8
Layer_2
  10
210.4364
  20
154.22656
  0
VERTEX
  5
95
  8
Layer_2
  10
210.3905
  20
154.31152
  0
VERTEX
  5
96
  8
Layer_2
  10
210.36121
  20
154.40527
  0
VERTEX
  5
97
  8
Layer_2
  10
210.35095
  20
154.50586
  0
VERTEX
  5
98
  8
Layer_2
  10
210.36121
  20
154.60693
  0
VERTEX
  5
99
  8
Layer_2
  10
210.3905
  20
154.70068
  0
VERTEX
  5
9a
  8
Layer_2
  10
210.4364
  20
154.78564
  0
VERTEX
  5
9b
  8
Layer_2
  10
210.49744
  20
154.85938
  0
VERTEX
  5
9c
  8
Layer_2
  10
210.57166
  20
154.92041
  0
VERTEX
  5
9d
  8
Layer_2
  10
210.65662
  20
154.9668
  0
VERTEX
  5
9e
  8
Layer_2
  10
210.75037
  20
154.99609
  0
VERTEX
  5
9f
  8
Layer_2
  10
210.85095
  20
155.00586
  0
VERTEX
  5
a0
  8
Layer_2
  10
210.95203
  20
154.99609
  0
VERTEX
  5
a1
  8
Layer_2
  10
211.04578
  20
154.9668
  0
VERTEX
  5
a2
  8
Layer_2
  10
211.13074
  20
154.92041
  0
VERTEX
  5
a3
  8
Layer_2
  10
211.20447
  20
154.85938
  0
VERTEX
  5
a4
  8
Layer_2
  10
211.2655
  20
154.78564
  0
VERTEX
  5
a5
  8
Layer_2
  10
211.31189
  20
154.70068
  0
VERTEX
  5
a6
  8
Layer_2
  10
211.34119
  20
154.60693
  0
VERTEX
  5
a7
  8
Layer_2
  10
211.35095
  20
154.50586
  0
VERTEX
  5
a8
  8
Layer_2
  10
211.34119
  20
154.40527
  0
VERTEX
  5
a9
  8
Layer_2
  10
211.31189
  20
154.31152
  0
VERTEX
  5
aa
  8
Layer_2
  10
211.2655
  20
154.22656
  0
VERTEX
  5
ab
  8
Layer_2
  10
211.20447
  20
154.15234
  0
VERTEX
  5
ac
  8
Layer_2
  10
211.13074
  20
154.09131
  0
VERTEX
  5
ad
  8
Layer_2
  10
211.04578
  20
154.04541
  0
VERTEX
  5
ae
  8
Layer_2
  10
210.95203
  20
154.01611
  0
VERTEX
  5
af
  8
Layer_2
  10
210.85095
  20
154.00586
  0
VERTEX
  5
b0
  8
Layer_2
  10
210.75037
  20
154.01611
  0
SEQEND
  0
POLYLINE
  5
b2
  8
Layer_2
  62
92
  66
1
  10
0
  20
0
  30
0
  0
VERTEX
  5
b2
  8
Layer_2
  10
172.44177
  20
153.36719
  0
VERTEX
  5
b3
  8
Layer_2
  10
172.34753
  20
153.39648
  0
VERTEX
  5
b4
  8
Layer_2
  10
172.26306
  20
153.44238
  0
VERTEX
  5
b5
  8
Layer_2
  10
172.18884
  20
153.50342
  0
VERTEX
  5
b6
  8
Layer_2
  10
172.12781
  20
153.57764
  0
VERTEX
  5
b7
  8
Layer_2
  10
172.08191
  20
153.6626
  0
VERTEX
  5
b8
  8
Layer_2
  10
172.05261
  20
153.75635
  0
VERTEX
  5
b9
  8
Layer_2
  10
172.04236
  20
153.85742
  0
VERTEX
  5
ba
  8
Layer_2
  10
172.05261
  20
153.95801
  0
VERTEX
  5
bb
  8
Layer_2
  10
172.08191
  20
154.05176
  0
VERTEX
  5
bc
  8
Layer_2
  10
172.12781
  20
154.13672
  0
VERTEX
  5
bd
  8
Layer_2
  10
172.18884
  20
154.21094
  0
VERTEX
  5
be
  8
Layer_2
  10
172.26306
  20
154.27197
  0
VERTEX
  5
bf
  8
Layer_2
  10
172.34753
  20
154.31787
  0
VERTEX
  5
c0
  8
Layer_2
  10
172.44177
  20
154.34717
  0
VERTEX
  5
c1
  8
Layer_2
  10
172.54236
  20
154.35742
  0
VERTEX
  5
c2
  8
Layer_2
  10
172.64294
  20
154.34717
  0
VERTEX
  5
c3
  8
Layer_2
  10
172.73718
  20
154.31787
  0
VERTEX
  5
c4
  8
Layer_2
  10
172.82214
  20
154.27197
  0
VERTEX
  5
c5
  8
Layer_2
  10
172.89587
  20
154.21094
  0
VERTEX
  5
c6
  8
Layer_2
  10
172.95691
  20
154.13672
  0
VERTEX
  5
c7
  8
Layer_2
  10
173.0033
  20
154.05176
  0
VERTEX
  5
c8
  8
Layer_2
  10
173.0321
  20
153.95801
  0
VERTEX
  5
c9
  8
Layer_2
  10
173.04236
  20
153.85742
  0
VERTEX
  5
ca
  8
Layer_2
  10
173.0321
  20
153.75635
  0
VERTEX
  5
cb
  8
Layer_2
  10
173.0033
  20
153.6626
  0
VERTEX
  5
cc
  8
Layer_2
  10
172.95691
  20
153.57764
  0
VERTEX
  5
cd
  8
Layer_2
  10
172.89587
  20
153.50342
  0
VERTEX
  5
ce
  8
Layer_2
  10
172.82214
  20
153.44238
  0
VERTEX
  5
cf
  8
Layer_2
  10
172.73718
  20
153.39648
  0
VERTEX
  5
d0
  8
Layer_2
  10
172.64294
  20
153.36719
  0
VERTEX
  5
d1
  8
Layer_2
  10
172.54236
  20
153.35742
  0
VERTEX
  5
d2
  8
Layer_2
  10
172.44177
  20
153.36719
  0
SEQEND
  0
POLYLINE
  5
d4
  8
Layer_2
  62
92
  66
1
  10
0
  20
0
  30
0
  0
VERTEX
  5
d4
  8
Layer_2
  10
93.838257
  20
153.22412
  0
VERTEX
  5
d5
  8
Layer_2
  10
93.744507
  20
153.25342
  0
VERTEX
  5
d6
  8
Layer_2
  10
93.659546
  20
153.2998
  0
VERTEX
  5
d7
  8
Layer_2
  10
93.585327
  20
153.36084
  0
VERTEX
  5
d8
  8
Layer_2
  10
93.524292
  20
153.43457
  0
VERTEX
  5
d9
  8
Layer_2
  10
93.478394
  20
153.51953
  0
VERTEX
  5
da
  8
Layer_2
  10
93.449097
  20
153.61328
  0
VERTEX
  5
db
  8
Layer_2
  10
93.438843
  20
153.71436
  0
VERTEX
  5
dc
  8
Layer_2
  10
93.449097
  20
153.81494
  0
VERTEX
  5
dd
  8
Layer_2
  10
93.478394
  20
153.90869
  0
VERTEX
  5
de
  8
Layer_2
  10
93.524292
  20
153.99365
  0
VERTEX
  5
df
  8
Layer_2
  10
93.585327
  20
154.06787
  0
VERTEX
  5
e0
  8
Layer_2
  10
93.659546
  20
154.12891
  0
VERTEX
  5
e1
  8
Layer_2
  10
93.744507
  20
154.1748
  0
VERTEX
  5
e2
  8
Layer_2
  10
93.838257
  20
154.2041
  0
VERTEX
  5
e3
  8
Layer_2
  10
93.938843
  20
154.21436
  0
VERTEX
  5
e4
  8
Layer_2
  10
94.039917
  20
154.2041
  0
VERTEX
  5
e5
  8
Layer_2
  10
94.133667
  20
154.1748
  0
VERTEX
  5
e6
  8
Layer_2
  10
94.218628
  20
154.12891
  0
VERTEX
  5
e7
  8
Layer_2
  10
94.292358
  20
154.06787
  0
VERTEX
  5
e8
  8
Layer_2
  10
94.353394
  20
153.99365
  0
VERTEX
  5
e9
  8
Layer_2
  10
94.39978
  20
153.90869
  0
VERTEX
  5
ea
  8
Layer_2
  10
94.429077
  20
153.81494
  0
VERTEX
  5
eb
  8
Layer_2
  10
94.438843
  20
153.71436
  0
VERTEX
  5
ec
  8
Layer_2
  10
94.429077
  20
153.61328
  0
VERTEX
  5
ed
  8
Layer_2
  10
94.39978
  20
153.51953
  0
VERTEX
  5
ee
  8
Layer_2
  10
94.353394
  20
153.43457
  0
VERTEX
  5
ef
  8
Layer_2
  10
94.292358
  20
153.36084
  0
VERTEX
  5
f0
  8
Layer_2
  10
94.218628
  20
153.2998
  0
VERTEX
  5
f1
  8
Layer_2
  10
94.133667
  20
153.25342
  0
VERTEX
  5
f2
  8
Layer_2
  10
94.039917
  20
153.22412
  0
VERTEX
  5
f3
  8
Layer_2
  10
93.938843
  20
153.21436
  0
VERTEX
  5
f4
  8
Layer_2
  10
93.838257
  20
153.22412
  0
SEQEND
  0
POLYLINE
  5
f6
  8
Layer_2
  62
92
  66
1
  10
0
  20
0
  30
0
  0
VERTEX
  5
f6
  8
Layer_2
  10
132.71667
  20
153.21289
  0
VERTEX
  5
f7
  8
Layer_2
  10
132.62244
  20
153.2417
  0
VERTEX
  5
f8
  8
Layer_2
  10
132.53748
  20
153.28809
  0
VERTEX
  5
f9
  8
Layer_2
  10
132.46375
  20
153.34912
  0
VERTEX
  5
fa
  8
Layer_2
  10
132.40271
  20
153.42285
  0
VERTEX
  5
fb
  8
Layer_2
  10
132.35632
  20
153.50781
  0
VERTEX
  5
fc
  8
Layer_2
  10
132.32751
  20
153.60156
  0
VERTEX
  5
fd
  8
Layer_2
  10
132.31726
  20
153.70264
  0
VERTEX
  5
fe
  8
Layer_2
  10
132.32751
  20
153.80322
  0
VERTEX
  5
ff
  8
Layer_2
  10
132.35632
  20
153.89697
  0
VERTEX
  5
100
  8
Layer_2
  10
132.40271
  20
153.98193
  0
VERTEX
  5
101
  8
Layer_2
  10
132.46375
  20
154.05615
  0
VERTEX
  5
102
  8
Layer_2
  10
132.53748
  20
154.11719
  0
VERTEX
  5
103
  8
Layer_2
  10
132.62244
  20
154.16309
  0
VERTEX
  5
104
  8
Layer_2
  10
132.71667
  20
154.19238
  0
VERTEX
  5
105
  8
Layer_2
  10
132.81726
  20
154.20264
  0
VERTEX
  5
106
  8
Layer_2
  10
132.91785
  20
154.19238
  0
VERTEX
  5
107
  8
Layer_2
  10
133.01208
  20
154.16309
  0
VERTEX
  5
108
  8
Layer_2
  10
133.09656
  20
154.11719
  0
VERTEX
  5
109
  8
Layer_2
  10
133.17078
  20
154.05615
  0
VERTEX
  5
10a
  8
Layer_2
  10
133.23181
  20
153.98193
  0
VERTEX
  5
10b
  8
Layer_2
  10
133.27771
  20
153.89697
  0
VERTEX
  5
10c
  8
Layer_2
  10
133.30701
  20
153.80322
  0
VERTEX
  5
10d
  8
Layer_2
  10
133.31726
  20
153.70264
  0
VERTEX
  5
10e
  8
Layer_2
  10
133.30701
  20
153.60156
  0
VERTEX
  5
10f
  8
Layer_2
  10
133.27771
  20
153.50781
  0
VERTEX
  5
110
  8
Layer_2
  10
133.23181
  20
153.42285
  0
VERTEX
  5
111
  8
Layer_2
  10
133.17078
  20
153.34912
  0
VERTEX
  5
112
  8
Layer_2
  10
133.09656
  20
153.28809
  0
VERTEX
  5
113
  8
Layer_2
  10
133.01208
  20
153.2417
  0
VERTEX
  5
114
  8
Layer_2
  10
132.91785
  20
153.21289
  0
VERTEX
  5
115
  8
Layer_2
  10
132.81726
  20
153.20264
  0
VERTEX
  5
116
  8
Layer_2
  10
132.71667
  20
153.21289
  0
SEQEND
  0
POLYLINE
  5
118
  8
Layer_2
  62
92
  66
1
  10
0
  20
0
  30
0
  0
VERTEX
  5
118
  8
Layer_2
  10
191.22156
  20
125.93896
  0
VERTEX
  5
119
  8
Layer_2
  10
191.12732
  20
125.96826
  0
VERTEX
  5
11a
  8
Layer_2
  10
191.04236
  20
126.01416
  0
VERTEX
  5
11b
  8
Layer_2
  10
190.96863
  20
126.0752
  0
VERTEX
  5
11c
  8
Layer_2
  10
190.90759
  20
126.14941
  0
VERTEX
  5
11d
  8
Layer_2
  10
190.86121
  20
126.23438
  0
VERTEX
  5
11e
  8
Layer_2
  10
190.8324
  20
126.32813
  0
VERTEX
  5
11f
  8
Layer_2
  10
190.82214
  20
126.42871
  0
VERTEX
  5
120
  8
Layer_2
  10
190.8324
  20
126.52979
  0
VERTEX
  5
121
  8
Layer_2
  10
190.86121
  20
126.62354
  0
VERTEX
  5
122
  8
Layer_2
  10
190.90759
  20
126.7085
  0
VERTEX
  5
123
  8
Layer_2
  10
190.96863
  20
126.78223
  0
VERTEX
  5
124
  8
Layer_2
  10
191.04236
  20
126.84326
  0
VERTEX
  5
125
  8
Layer_2
  10
191.12732
  20
126.88965
  0
VERTEX
  5
126
  8
Layer_2
  10
191.22156
  20
126.91846
  0
VERTEX
  5
127
  8
Layer_2
  10
191.32214
  20
126.92871
  0
VERTEX
  5
128
  8
Layer_2
  10
191.42273
  20
126.91846
  0
VERTEX
  5
129
  8
Layer_2
  10
191.51697
  20
126.88965
  0
VERTEX
  5
12a
  8
Layer_2
  10
191.60193
  20
126.84326
  0
VERTEX
  5
12b
  8
Layer_2
  10
191.67566
  20
126.78223
  0
VERTEX
  5
12c
  8
Layer_2
  10
191.73669
  20
126.7085
  0
VERTEX
  5
12d
  8
Layer_2
  10
191.78308
  20
126.62354
  0
VERTEX
  5
12e
  8
Layer_2
  10
191.81189
  20
126.52979
  0
VERTEX
  5
12f
  8
Layer_2
  10
191.82214
  20
126.42871
  0
VERTEX
  5
130
  8
Layer_2
  10
191.81189
  20
126.32813
  0
VERTEX
  5
131
  8
Layer_2
  10
191.78308
  20
126.23438
  0
VERTEX
  5
132
  8
Layer_2
  10
191.73669
  20
126.14941
  0
VERTEX
  5
133
  8
Layer_2
  10
191.67566
  20
126.0752
  0
VERTEX
  5
134
  8
Layer_2
  10
191.60193
  20
126.01416
  0
VERTEX
  5
135
  8
Layer_2
  10
191.51697
  20
125.96826
  0
VERTEX
  5
136
  8
Layer_2
  10
191.42273
  20
125.93896
  0
VERTEX
  5
137
  8
Layer_2
  10
191.32214
  20
125.92871
  0
VERTEX
  5
138
  8
Layer_2
  10
191.22156
  20
125.93896
  0
SEQEND
  0
POLYLINE
  5
13a
  8
Layer_2
  62
92
  66
1
  10
0
  20
0
  30
0
  0
VERTEX
  5
13a
  8
Layer_2
  10
152.38269
  20
125.4668
  0
VERTEX
  5
13b
  8
Layer_2
  10
152.28894
  20
125.49609
  0
VERTEX
  5
13c
  8
Layer_2
  10
152.20398
  20
125.54248
  0
VERTEX
  5
13d
  8
Layer_2
  10
152.12976
  20
125.60352
  0
VERTEX
  5
13e
  8
Layer_2
  10
152.06873
  20
125.67725
  0
VERTEX
  5
13f
  8
Layer_2
  10
152.02283
  20
125.76221
  0
VERTEX
  5
140
  8
Layer_2
  10
151.99353
  20
125.85596
  0
VERTEX
  5
141
  8
Layer_2
  10
151.98328
  20
125.95703
  0
VERTEX
  5
142
  8
Layer_2
  10
151.99353
  20
126.05762
  0
VERTEX
  5
143
  8
Layer_2
  10
152.02283
  20
126.15137
  0
VERTEX
  5
144
  8
Layer_2
  10
152.06873
  20
126.23633
  0
VERTEX
  5
145
  8
Layer_2
  10
152.12976
  20
126.31055
  0
VERTEX
  5
146
  8
Layer_2
  10
152.20398
  20
126.37158
  0
VERTEX
  5
147
  8
Layer_2
  10
152.28894
  20
126.41748
  0
VERTEX
  5
148
  8
Layer_2
  10
152.38269
  20
126.44678
  0
VERTEX
  5
149
  8
Layer_2
  10
152.48328
  20
126.45703
  0
VERTEX
  5
14a
  8
Layer_2
  10
152.58435
  20
126.44678
  0
VERTEX
  5
14b
  8
Layer_2
  10
152.6781
  20
126.41748
  0
VERTEX
  5
14c
  8
Layer_2
  10
152.76306
  20
126.37158
  0
VERTEX
  5
14d
  8
Layer_2
  10
152.83679
  20
126.31055
  0
VERTEX
  5
14e
  8
Layer_2
  10
152.89783
  20
126.23633
  0
VERTEX
  5
14f
  8
Layer_2
  10
152.94421
  20
126.15137
  0
VERTEX
  5
150
  8
Layer_2
  10
152.97351
  20
126.05762
  0
VERTEX
  5
151
  8
Layer_2
  10
152.98328
  20
125.95703
  0
VERTEX
  5
152
  8
Layer_2
  10
152.97351
  20
125.85596
  0
VERTEX
  5
153
  8
Layer_2
  10
152.94421
  20
125.76221
  0
VERTEX
  5
154
  8
Layer_2
  10
152.89783
  20
125.67725
  0
VERTEX
  5
155
  8
Layer_2
  10
152.83679
  20
125.60352
  0
VERTEX
  5
156
  8
Layer_2
  10
152.76306
  20
125.54248
  0
VERTEX
  5
157
  8
Layer_2
  10
152.6781
  20
125.49609
  0
VERTEX
  5
158
  8
Layer_2
  10
152.58435
  20
125.4668
  0
VERTEX
  5
159
  8
Layer_2
  10
152.48328
  20
125.45703
  0
VERTEX
  5
15a
  8
Layer_2
  10
152.38269
  20
125.4668
  0
SEQEND
  0
POLYLINE
  5
15c
  8
Layer_2
  62
92
  66
1
  10
0
  20
0
  30
0
  0
VERTEX
  5
15c
  8
Layer_2
  10
112.78796
  20
125.3042
  0
VERTEX
  5
15d
  8
Layer_2
  10
112.69373
  20
125.33301
  0
VERTEX
  5
15e
  8
Layer_2
  10
112.60876
  20
125.37939
  0
VERTEX
  5
15f
  8
Layer_2
  10
112.53503
  20
125.44043
  0
VERTEX
  5
160
  8
Layer_2
  10
112.474
  20
125.51416
  0
VERTEX
  5
161
  8
Layer_2
  10
112.42761
  20
125.59912
  0
VERTEX
  5
162
  8
Layer_2
  10
112.3988
  20
125.69287
  0
VERTEX
  5
163
  8
Layer_2
  10
112.38855
  20
125.79395
  0
VERTEX
  5
164
  8
Layer_2
  10
112.3988
  20
125.89453
  0
VERTEX
  5
165
  8
Layer_2
  10
112.42761
  20
125.98828
  0
VERTEX
  5
166
  8
Layer_2
  10
112.474
  20
126.07324
  0
VERTEX
  5
167
  8
Layer_2
  10
112.53503
  20
126.14746
  0
VERTEX
  5
168
  8
Layer_2
  10
112.60876
  20
126.2085
  0
VERTEX
  5
169
  8
Layer_2
  10
112.69373
  20
126.25439
  0
VERTEX
  5
16a
  8
Layer_2
  10
112.78796
  20
126.28369
  0
VERTEX
  5
16b
  8
Layer_2
  10
112.88855
  20
126.29395
  0
VERTEX
  5
16c
  8
Layer_2
  10
112.98914
  20
126.28369
  0
VERTEX
  5
16d
  8
Layer_2
  10
113.08337
  20
126.25439
  0
VERTEX
  5
16e
  8
Layer_2
  10
113.16785
  20
126.2085
  0
VERTEX
  5
16f
  8
Layer_2
  10
113.24207
  20
126.14746
  0
VERTEX
  5
170
  8
Layer_2
  10
113.3031
  20
126.07324
  0
VERTEX
  5
171
  8
Layer_2
  10
113.349
  20
125.98828
  0
VERTEX
  5
172
  8
Layer_2
  10
113.3783
  20
125.89453
  0
VERTEX
  5
173
  8
Layer_2
  10
113.38855
  20
125.79395
  0
VERTEX
  5
174
  8
Layer_2
  10
113.3783
  20
125.69287
  0
VERTEX
  5
175
  8
Layer_2
  10
113.349
  20
125.59912
  0
VERTEX
  5
176
  8
Layer_2
  10
113.3031
  20
125.51416
  0
VERTEX
  5
177
  8
Layer_2
  10
113.24207
  20
125.44043
  0
VERTEX
  5
178
  8
Layer_2
  10
113.16785
  20
125.37939
  0
VERTEX
  5
179
  8
Layer_2
  10
113.08337
  20
125.33301
  0
VERTEX
  5
17a
  8
Layer_2
  10
112.98914
  20
125.3042
  0
VERTEX
  5
17b
  8
Layer_2
  10
112.88855
  20
125.29395
  0
VERTEX
  5
17c
  8
Layer_2
  10
112.78796
  20
125.3042
  0
SEQEND
  0
POLYLINE
  5
17e
  8
Layer_2
  62
92
  66
1
  10
0
  20
0
  30
0
  0
VERTEX
  5
17e
  8
Layer_2
  10
152.40027
  20
54.285645
  0
VERTEX
  5
17f
  8
Layer_2
  10
152.30652
  20
54.314941
  0
VERTEX
  5
180
  8
Layer_2
  10
152.22156
  20
54.36084
  0
VERTEX
  5
181
  8
Layer_2
  10
152.14734
  20
54.421875
  0
VERTEX
  5
182
  8
Layer_2
  10
152.0863
  20
54.496094
  0
VERTEX
  5
183
  8
Layer_2
  10
152.04041
  20
54.581055
  0
VERTEX
  5
184
  8
Layer_2
  10
152.01111
  20
54.674805
  0
VERTEX
  5
185
  8
Layer_2
  10
152.00085
  20
54.775879
  0
VERTEX
  5
186
  8
Layer_2
  10
152.01111
  20
54.876465
  0
VERTEX
  5
187
  8
Layer_2
  10
152.04041
  20
54.970215
  0
VERTEX
  5
188
  8
Layer_2
  10
152.0863
  20
55.055176
  0
VERTEX
  5
189
  8
Layer_2
  10
152.14734
  20
55.129395
  0
VERTEX
  5
18a
  8
Layer_2
  10
152.22156
  20
55.19043
  0
VERTEX
  5
18b
  8
Layer_2
  10
152.30652
  20
55.236328
  0
VERTEX
  5
18c
  8
Layer_2
  10
152.40027
  20
55.265625
  0
VERTEX
  5
18d
  8
Layer_2
  10
152.50085
  20
55.275879
  0
VERTEX
  5
18e
  8
Layer_2
  10
152.60193
  20
55.265625
  0
VERTEX
  5
18f
  8
Layer_2
  10
152.69568
  20
55.236328
  0
VERTEX
  5
190
  8
Layer_2
  10
152.78064
  20
55.19043
  0
VERTEX
  5
191
  8
Layer_2
  10
152.85437
  20
55.129395
  0
VERTEX
  5
192
  8
Layer_2
  10
152.91541
  20
55.055176
  0
VERTEX
  5
193
  8
Layer_2
  10
152.96179
  20
54.970215
  0
VERTEX
  5
194
  8
Layer_2
  10
152.99109
  20
54.876465
  0
VERTEX
  5
195
  8
Layer_2
  10
153.00085
  20
54.775879
  0
VERTEX
  5
196
  8
Layer_2
  10
152.99109
  20
54.674805
  0
VERTEX
  5
197
  8
Layer_2
  10
152.96179
  20
54.581055
  0
VERTEX
  5
198
  8
Layer_2
  10
152.91541
  20
54.496094
  0
VERTEX
  5
199
  8
Layer_2
  10
152.85437
  20
54.421875
  0
VERTEX
  5
19a
  8
Layer_2
  10
152.78064
  20
54.36084
  0
VERTEX
  5
19b
  8
Layer_2
  10
152.69568
  20
54.314941
  0
VERTEX
  5
19c
  8
Layer_2
  10
152.60193
  20
54.285645
  0
VERTEX
  5
19d
  8
Layer_2
  10
152.50085
  20
54.275391
  0
VERTEX
  5
19e
  8
Layer_2
  10
152.40027
  20
54.285645
  0
SEQEND
  0
POLYLINE
  5
1a0
  8
Layer_3
  62
1
  66
1
  10
0
  20
0
  30
0
  0
VERTEX
  5
1a0
  8
Layer_3
  10
211.06679
  20
154.96106
  0
VERTEX
  5
1a1
  8
Layer_3
  10
211.34608
  20
154.91537
  0
VERTEX
  5
1a2
  8
Layer_3
  10
211.5832
  20
154.8677
  0
VERTEX
  5
1a3
  8
Layer_3
  10
211.75308
  20
154.8237
  0
VERTEX
  5
1a4
  8
Layer_3
  10
211.83066
  20
154.78901
  0
VERTEX
  5
1a5
  8
Layer_3
  10
211.86085
  20
154.74692
  0
VERTEX
  5
1a6
  8
Layer_3
  10
211.93825
  20
154.63705
  0
VERTEX
  5
1a7
  8
Layer_3
  10
212.06042
  20
154.46291
  0
VERTEX
  5
1a8
  8
Layer_3
  10
212.2249
  20
154.22801
  0
VERTEX
  5
1a9
  8
Layer_3
  10
212.42924
  20
153.93586
  0
VERTEX
  5
1aa
  8
Layer_3
  10
212.671
  20
153.58997
  0
VERTEX
  5
1ab
  8
Layer_3
  10
212.94772
  20
153.19384
  0
VERTEX
  5
1ac
  8
Layer_3
  10
213.25696
  20
152.75098
  0
VERTEX
  5
1ad
  8
Layer_3
  10
213.59627
  20
152.2649
  0
VERTEX
  5
1ae
  8
Layer_3
  10
213.96319
  20
151.73911
  0
VERTEX
  5
1af
  8
Layer_3
  10
214.35529
  20
151.17711
  0
VERTEX
  5
1b0
  8
Layer_3
  10
214.7701
  20
150.58242
  0
VERTEX
  5
1b1
  8
Layer_3
  10
215.20519
  20
149.95854
  0
VERTEX
  5
1b2
  8
Layer_3
  10
215.65809
  20
149.30898
  0
VERTEX
  5
1b3
  8
Layer_3
  10
216.12637
  20
148.63725
  0
VERTEX
  5
1b4
  8
Layer_3
  10
216.60758
  20
147.94685
  0
VERTEX
  5
1b5
  8
Layer_3
  10
217.53511
  20
146.61597
  0
VERTEX
  5
1b6
  8
Layer_3
  10
218.41289
  20
145.35651
  0
VERTEX
  5
1b7
  8
Layer_3
  10
219.24254
  20
144.16613
  0
VERTEX
  5
1b8
  8
Layer_3
  10
220.02568
  20
143.04251
  0
VERTEX
  5
1b9
  8
Layer_3
  10
220.76394
  20
141.98333
  0
VERTEX
  5
1ba
  8
Layer_3
  10
221.45893
  20
140.98624
  0
VERTEX
  5
1bb
  8
Layer_3
  10
222.11228
  20
140.04894
  0
VERTEX
  5
1bc
  8
Layer_3
  10
222.72562
  20
139.16909
  0
VERTEX
  5
1bd
  8
Layer_3
  10
223.30057
  20
138.34437
  0
VERTEX
  5
1be
  8
Layer_3
  10
223.83876
  20
137.57244
  0
VERTEX
  5
1bf
  8
Layer_3
  10
224.3418
  20
136.85099
  0
VERTEX
  5
1c0
  8
Layer_3
  10
224.81131
  20
136.17768
  0
VERTEX
  5
1c1
  8
Layer_3
  10
225.24894
  20
135.55019
  0
VERTEX
  5
1c2
  8
Layer_3
  10
225.65629
  20
134.9662
  0
VERTEX
  5
1c3
  8
Layer_3
  10
226.03499
  20
134.42337
  0
VERTEX
  5
1c4
  8
Layer_3
  10
226.38667
  20
133.91938
  0
VERTEX
  5
1c5
  8
Layer_3
  10
226.71295
  20
133.4519
  0
VERTEX
  5
1c6
  8
Layer_3
  10
227.01545
  20
133.01861
  0
VERTEX
  5
1c7
  8
Layer_3
  10
227.29579
  20
132.61717
  0
VERTEX
  5
1c8
  8
Layer_3
  10
227.55561
  20
132.24527
  0
VERTEX
  5
1c9
  8
Layer_3
  10
227.79652
  20
131.90058
  0
VERTEX
  5
1ca
  8
Layer_3
  10
228.02014
  20
131.58077
  0
VERTEX
  5
1cb
  8
Layer_3
  10
228.22811
  20
131.28351
  0
VERTEX
  5
1cc
  8
Layer_3
  10
228.42204
  20
131.00647
  0
VERTEX
  5
1cd
  8
Layer_3
  10
228.77429
  20
130.50377
  0
VERTEX
  5
1ce
  8
Layer_3
  10
229.08988
  20
130.05406
  0
VERTEX
  5
1cf
  8
Layer_3
  10
229.38181
  20
129.63872
  0
VERTEX
  5
1d0
  8
Layer_3
  10
229.66305
  20
129.23913
  0
VERTEX
  5
1d1
  8
Layer_3
  10
229.97376
  20
128.79044
  0
VERTEX
  5
1d2
  8
Layer_3
  10
230.26363
  20
128.35733
  0
VERTEX
  5
1d3
  8
Layer_3
  10
230.52631
  20
127.95033
  0
VERTEX
  5
1d4
  8
Layer_3
  10
230.75546
  20
127.57994
  0
VERTEX
  5
1d5
  8
Layer_3
  10
230.94473
  20
127.2567
  0
VERTEX
  5
1d6
  8
Layer_3
  10
231.08777
  20
126.99111
  0
VERTEX
  5
1d7
  8
Layer_3
  10
231.17825
  20
126.79369
  0
VERTEX
  5
1d8
  8
Layer_3
  10
231.20982
  20
126.67496
  0
VERTEX
  5
1d9
  8
Layer_3
  10
231.18714
  20
126.58014
  0
VERTEX
  5
1da
  8
Layer_3
  10
231.12213
  20
126.45126
  0
VERTEX
  5
1db
  8
Layer_3
  10
231.01935
  20
126.29401
  0
VERTEX
  5
1dc
  8
Layer_3
  10
230.88337
  20
126.11412
  0
VERTEX
  5
1dd
  8
Layer_3
  10
230.52999
  20
125.70924
  0
VERTEX
  5
1de
  8
Layer_3
  10
230.09848
  20
125.28232
  42
0.0020807358
  0
VERTEX
  5
1df
  8
Layer_3
  10
225.92883
  20
121.39009
  42
-0.00019499297
  0
VERTEX
  5
1e0
  8
Layer_3
  10
221.06151
  20
116.82915
  42
0.0020980875
  0
VERTEX
  5
1e1
  8
Layer_3
  10
214.27502
  20
110.43343
  0
VERTEX
  5
1e2
  8
Layer_3
  10
213.62329
  20
109.8161
  0
VERTEX
  5
1e3
  8
Layer_3
  10
213.02241
  20
109.25259
  0
VERTEX
  5
1e4
  8
Layer_3
  10
212.7619
  20
109.01047
  0
VERTEX
  5
1e5
  8
Layer_3
  10
212.53915
  20
108.80515
  0
VERTEX
  5
1e6
  8
Layer_3
  10
212.36249
  20
108.6444
  0
VERTEX
  5
1e7
  8
Layer_3
  10
212.24027
  20
108.53602
  0
VERTEX
  5
1e8
  8
Layer_3
  10
212.18014
  20
108.48298
  0
VERTEX
  5
1e9
  8
Layer_3
  10
212.09309
  20
108.40449
  0
VERTEX
  5
1ea
  8
Layer_3
  10
211.9808
  20
108.3021
  0
VERTEX
  5
1eb
  8
Layer_3
  10
211.84492
  20
108.17737
  0
VERTEX
  5
1ec
  8
Layer_3
  10
211.68712
  20
108.03186
  0
VERTEX
  5
1ed
  8
Layer_3
  10
211.50909
  20
107.86712
  0
VERTEX
  5
1ee
  8
Layer_3
  10
211.31249
  20
107.6847
  0
VERTEX
  5
1ef
  8
Layer_3
  10
211.09898
  20
107.48616
  0
VERTEX
  5
1f0
  8
Layer_3
  10
210.62795
  20
107.04693
  0
VERTEX
  5
1f1
  8
Layer_3
  10
210.10935
  20
106.56187
  0
VERTEX
  5
1f2
  8
Layer_3
  10
209.55655
  20
106.04342
  0
VERTEX
  5
1f3
  8
Layer_3
  10
208.9829
  20
105.504
  0
VERTEX
  5
1f4
  8
Layer_3
  10
208.41094
  20
104.96598
  0
VERTEX
  5
1f5
  8
Layer_3
  10
207.863
  20
104.45153
  0
VERTEX
  5
1f6
  8
Layer_3
  10
207.35208
  20
103.9728
  0
VERTEX
  5
1f7
  8
Layer_3
  10
206.89121
  20
103.54195
  0
VERTEX
  5
1f8
  8
Layer_3
  10
206.68361
  20
103.34827
  0
VERTEX
  5
1f9
  8
Layer_3
  10
206.49341
  20
103.17113
  0
VERTEX
  5
1fa
  8
Layer_3
  10
206.32222
  20
103.01203
  0
VERTEX
  5
1fb
  8
Layer_3
  10
206.17169
  20
102.87249
  0
VERTEX
  5
1fc
  8
Layer_3
  10
206.04343
  20
102.75405
  0
VERTEX
  5
1fd
  8
Layer_3
  10
205.93908
  20
102.6582
  0
VERTEX
  5
1fe
  8
Layer_3
  10
205.86025
  20
102.58649
  0
VERTEX
  5
1ff
  8
Layer_3
  10
205.80859
  20
102.54041
  0
VERTEX
  5
200
  8
Layer_3
  10
205.75629
  20
102.49379
  0
VERTEX
  5
201
  8
Layer_3
  10
205.6756
  20
102.42046
  0
VERTEX
  5
202
  8
Layer_3
  10
205.56821
  20
102.322
  0
VERTEX
  5
203
  8
Layer_3
  10
205.43581
  20
102.19998
  0
VERTEX
  5
204
  8
Layer_3
  10
205.2801
  20
102.05597
  0
VERTEX
  5
205
  8
Layer_3
  10
205.10276
  20
101.89156
  0
VERTEX
  5
206
  8
Layer_3
  10
204.90548
  20
101.7083
  0
VERTEX
  5
207
  8
Layer_3
  10
204.68995
  20
101.50779
  0
VERTEX
  5
208
  8
Layer_3
  10
204.21092
  20
101.06125
  0
VERTEX
  5
209
  8
Layer_3
  10
203.67919
  20
100.56455
  0
VERTEX
  5
20a
  8
Layer_3
  10
203.10827
  20
100.03026
  0
VERTEX
  5
20b
  8
Layer_3
  10
202.5117
  20
99.470979
  42
-0.00020767246
  0
VERTEX
  5
20c
  8
Layer_3
  10
194.37881
  20
91.84285
  42
0.0020418667
  0
VERTEX
  5
20d
  8
Layer_3
  10
191.20135
  20
88.84185
  0
VERTEX
  5
20e
  8
Layer_3
  10
190.54962
  20
88.224414
  0
VERTEX
  5
20f
  8
Layer_3
  10
189.94872
  20
87.660808
  0
VERTEX
  5
210
  8
Layer_3
  10
189.6882
  20
87.418649
  0
VERTEX
  5
211
  8
Layer_3
  10
189.46543
  20
87.213298
  0
VERTEX
  5
212
  8
Layer_3
  10
189.28875
  20
87.052538
  0
VERTEX
  5
213
  8
Layer_3
  10
189.16651
  20
86.944153
  0
VERTEX
  5
214
  8
Layer_3
  10
189.10528
  20
86.89001
  0
VERTEX
  5
215
  8
Layer_3
  10
189.015
  20
86.808294
  0
VERTEX
  5
216
  8
Layer_3
  10
188.89746
  20
86.700669
  0
VERTEX
  5
217
  8
Layer_3
  10
188.75443
  20
86.568797
  0
VERTEX
  5
218
  8
Layer_3
  10
188.58769
  20
86.414342
  0
VERTEX
  5
219
  8
Layer_3
  10
188.39903
  20
86.238966
  0
VERTEX
  5
21a
  8
Layer_3
  10
188.19021
  20
86.044333
  0
VERTEX
  5
21b
  8
Layer_3
  10
187.96302
  20
85.832105
  0
VERTEX
  5
21c
  8
Layer_3
  10
187.46065
  20
85.361518
  0
VERTEX
  5
21d
  8
Layer_3
  10
186.90612
  20
84.84051
  0
VERTEX
  5
21e
  8
Layer_3
  10
186.31368
  20
84.282384
  0
VERTEX
  5
21f
  8
Layer_3
  10
185.69754
  20
83.700445
  0
VERTEX
  5
220
  8
Layer_3
  10
185.08276
  20
83.119635
  0
VERTEX
  5
221
  8
Layer_3
  10
184.4942
  20
82.564743
  0
VERTEX
  5
222
  8
Layer_3
  10
183.94582
  20
82.048847
  0
VERTEX
  5
223
  8
Layer_3
  10
183.45157
  20
81.585024
  0
VERTEX
  5
224
  8
Layer_3
  10
183.2291
  20
81.376727
  0
VERTEX
  5
225
  8
Layer_3
  10
183.0254
  20
81.186353
  0
VERTEX
  5
226
  8
Layer_3
  10
182.84221
  20
81.015535
  0
VERTEX
  5
227
  8
Layer_3
  10
182.68128
  20
80.86591
  0
VERTEX
  5
228
  8
Layer_3
  10
182.54434
  20
80.739111
  0
VERTEX
  5
229
  8
Layer_3
  10
182.43315
  20
80.636773
  0
VERTEX
  5
22a
  8
Layer_3
  10
182.34945
  20
80.560532
  0
VERTEX
  5
22b
  8
Layer_3
  10
182.29498
  20
80.512021
  0
VERTEX
  5
22c
  8
Layer_3
  10
182.24113
  20
80.464127
  0
VERTEX
  5
22d
  8
Layer_3
  10
182.15926
  20
80.389696
  0
VERTEX
  5
22e
  8
Layer_3
  10
182.05104
  20
80.290303
  0
VERTEX
  5
22f
  8
Layer_3
  10
181.91817
  20
80.16752
  0
VERTEX
  5
230
  8
Layer_3
  10
181.76232
  20
80.022922
  0
VERTEX
  5
231
  8
Layer_3
  10
181.58518
  20
79.858082
  0
VERTEX
  5
232
  8
Layer_3
  10
181.38842
  20
79.674574
  0
VERTEX
  5
233
  8
Layer_3
  10
181.17374
  20
79.473971
  0
VERTEX
  5
234
  8
Layer_3
  10
180.69732
  20
79.027776
  0
VERTEX
  5
235
  8
Layer_3
  10
180.16938
  20
78.532088
  0
VERTEX
  5
236
  8
Layer_3
  10
179.60339
  20
77.999495
  0
VERTEX
  5
237
  8
Layer_3
  10
179.01279
  20
77.442588
  0
VERTEX
  5
238
  8
Layer_3
  10
178.42256
  20
76.885948
  0
VERTEX
  5
239
  8
Layer_3
  10
177.8576
  20
76.354124
  0
VERTEX
  5
23a
  8
Layer_3
  10
177.3313
  20
75.859652
  0
VERTEX
  5
23b
  8
Layer_3
  10
176.85705
  20
75.415067
  0
VERTEX
  5
23c
  8
Layer_3
  10
176.64363
  20
75.215399
  0
VERTEX
  5
23d
  8
Layer_3
  10
176.44825
  20
75.032904
  0
VERTEX
  5
23e
  8
Layer_3
  10
176.27257
  20
74.869148
  0
VERTEX
  5
23f
  8
Layer_3
  10
176.11827
  20
74.725699
  0
VERTEX
  5
240
  8
Layer_3
  10
175.98702
  20
74.604123
  0
VERTEX
  5
241
  8
Layer_3
  10
175.8805
  20
74.505987
  0
VERTEX
  5
242
  8
Layer_3
  10
175.80039
  20
74.432859
  0
VERTEX
  5
243
  8
Layer_3
  10
175.74835
  20
74.386305
  0
VERTEX
  5
244
  8
Layer_3
  10
175.69631
  20
74.33975
  0
VERTEX
  5
245
  8
Layer_3
  10
175.61619
  20
74.266622
  0
VERTEX
  5
246
  8
Layer_3
  10
175.50968
  20
74.168486
  0
VERTEX
  5
247
  8
Layer_3
  10
175.37843
  20
74.04691
  0
VERTEX
  5
248
  8
Layer_3
  10
175.22413
  20
73.903461
  0
VERTEX
  5
249
  8
Layer_3
  10
175.04845
  20
73.739705
  0
VERTEX
  5
24a
  8
Layer_3
  10
174.85306
  20
73.55721
  0
VERTEX
  5
24b
  8
Layer_3
  10
174.63964
  20
73.357542
  0
VERTEX
  5
24c
  8
Layer_3
  10
174.16539
  20
72.912956
  0
VERTEX
  5
24d
  8
Layer_3
  10
173.6391
  20
72.418484
  0
VERTEX
  5
24e
  8
Layer_3
  10
173.07414
  20
71.886661
  0
VERTEX
  5
24f
  8
Layer_3
  10
172.4839
  20
71.330021
  0
VERTEX
  5
250
  8
Layer_3
  10
171.89333
  20
70.773114
  0
VERTEX
  5
251
  8
Layer_3
  10
171.3274
  20
70.240521
  0
VERTEX
  5
252
  8
Layer_3
  10
170.79956
  20
69.744833
  0
VERTEX
  5
253
  8
Layer_3
  10
170.32327
  20
69.298639
  0
VERTEX
  5
254
  8
Layer_3
  10
170.10866
  20
69.098036
  0
VERTEX
  5
255
  8
Layer_3
  10
169.91199
  20
68.914528
  0
VERTEX
  5
256
  8
Layer_3
  10
169.73493
  20
68.749688
  0
VERTEX
  5
257
  8
Layer_3
  10
169.57918
  20
68.60509
  0
VERTEX
  5
258
  8
Layer_3
  10
169.4464
  20
68.482307
  0
VERTEX
  5
259
  8
Layer_3
  10
169.33829
  20
68.382913
  0
VERTEX
  5
25a
  8
Layer_3
  10
169.25652
  20
68.308483
  0
VERTEX
  5
25b
  8
Layer_3
  10
169.20279
  20
68.260589
  0
VERTEX
  5
25c
  8
Layer_3
  10
169.14905
  20
68.212695
  0
VERTEX
  5
25d
  8
Layer_3
  10
169.06728
  20
68.138264
  0
VERTEX
  5
25e
  8
Layer_3
  10
168.95917
  20
68.038871
  0
VERTEX
  5
25f
  8
Layer_3
  10
168.8264
  20
67.916088
  0
VERTEX
  5
260
  8
Layer_3
  10
168.67064
  20
67.77149
  0
VERTEX
  5
261
  8
Layer_3
  10
168.49359
  20
67.60665
  0
VERTEX
  5
262
  8
Layer_3
  10
168.29691
  20
67.423142
  0
VERTEX
  5
263
  8
Layer_3
  10
168.08231
  20
67.222539
  0
VERTEX
  5
264
  8
Layer_3
  10
167.60602
  20
66.776345
  0
VERTEX
  5
265
  8
Layer_3
  10
167.07818
  20
66.280656
  0
VERTEX
  5
266
  8
Layer_3
  10
166.51224
  20
65.748064
  0
VERTEX
  5
267
  8
Layer_3
  10
165.92167
  20
65.191156
  0
VERTEX
  5
268
  8
Layer_3
  10
165.33108
  20
64.634249
  0
VERTEX
  5
269
  8
Layer_3
  10
164.76508
  20
64.101656
  0
VERTEX
  5
26a
  8
Layer_3
  10
164.23714
  20
63.605968
  0
VERTEX
  5
26b
  8
Layer_3
  10
163.76072
  20
63.159774
  0
VERTEX
  5
26c
  8
Layer_3
  10
163.54604
  20
62.959171
  0
VERTEX
  5
26d
  8
Layer_3
  10
163.34928
  20
62.775662
  0
VERTEX
  5
26e
  8
Layer_3
  10
163.17214
  20
62.610822
  0
VERTEX
  5
26f
  8
Layer_3
  10
163.01629
  20
62.466224
  0
VERTEX
  5
270
  8
Layer_3
  10
162.88342
  20
62.343441
  0
VERTEX
  5
271
  8
Layer_3
  10
162.77521
  20
62.244048
  0
VERTEX
  5
272
  8
Layer_3
  10
162.69334
  20
62.169617
  0
VERTEX
  5
273
  8
Layer_3
  10
162.63949
  20
62.121723
  0
VERTEX
  5
274
  8
Layer_3
  10
162.56882
  20
62.059187
  0
VERTEX
  5
275
  8
Layer_3
  10
162.46994
  20
61.9699
  0
VERTEX
  5
276
  8
Layer_3
  10
162.34448
  20
61.855386
  0
VERTEX
  5
277
  8
Layer_3
  10
162.19405
  20
61.717171
  0
VERTEX
  5
278
  8
Layer_3
  10
162.02029
  20
61.556778
  0
VERTEX
  5
279
  8
Layer_3
  10
161.82482
  20
61.375733
  0
VERTEX
  5
27a
  8
Layer_3
  10
161.60925
  20
61.175561
  0
VERTEX
  5
27b
  8
Layer_3
  10
161.37522
  20
60.957784
  0
VERTEX
  5
27c
  8
Layer_3
  10
160.85823
  20
60.47552
  0
VERTEX
  5
27d
  8
Layer_3
  10
160.28683
  20
59.941138
  0
VERTEX
  5
27e
  8
Layer_3
  10
159.674
  20
59.366834
  0
VERTEX
  5
27f
  8
Layer_3
  10
159.03274
  20
58.764805
  0
VERTEX
  5
280
  8
Layer_3
  10
157.71679
  20
57.526359
  0
VERTEX
  5
281
  8
Layer_3
  10
156.44284
  20
56.323376
  0
VERTEX
  5
282
  8
Layer_3
  10
155.85406
  20
55.765674
  0
VERTEX
  5
283
  8
Layer_3
  10
155.31472
  20
55.253428
  0
VERTEX
  5
284
  8
Layer_3
  10
155.06765
  20
55.018162
  0
VERTEX
  5
285
  8
Layer_3
  10
154.8378
  20
54.798834
  0
VERTEX
  5
286
  8
Layer_3
  10
154.62681
  20
54.596969
  0
VERTEX
  5
287
  8
Layer_3
  10
154.43629
  20
54.41409
  0
VERTEX
  5
288
  8
Layer_3
  10
154.08448
  20
54.081155
  0
VERTEX
  5
289
  8
Layer_3
  10
153.74846
  20
53.77354
  0
VERTEX
  5
28a
  8
Layer_3
  10
153.43613
  20
53.497765
  0
VERTEX
  5
28b
  8
Layer_3
  10
153.15541
  20
53.260348
  0
VERTEX
  5
28c
  8
Layer_3
  10
152.91422
  20
53.067808
  0
VERTEX
  5
28d
  8
Layer_3
  10
152.72046
  20
52.926665
  0
VERTEX
  5
28e
  8
Layer_3
  10
152.58206
  20
52.843438
  0
VERTEX
  5
28f
  8
Layer_3
  10
152.50691
  20
52.824646
  0
VERTEX
  5
290
  8
Layer_3
  10
152.46539
  20
52.853279
  0
VERTEX
  5
291
  8
Layer_3
  10
152.37837
  20
52.924614
  0
VERTEX
  5
292
  8
Layer_3
  10
152.24651
  20
53.038052
  0
VERTEX
  5
293
  8
Layer_3
  10
152.07045
  20
53.192994
  0
VERTEX
  5
294
  8
Layer_3
  10
151.85083
  20
53.388843
  0
VERTEX
  5
295
  8
Layer_3
  10
151.58831
  20
53.624999
  0
VERTEX
  5
296
  8
Layer_3
  10
151.28353
  20
53.900863
  0
VERTEX
  5
297
  8
Layer_3
  10
150.93714
  20
54.215838
  0
VERTEX
  5
298
  8
Layer_3
  10
150.54979
  20
54.569324
  0
VERTEX
  5
299
  8
Layer_3
  10
150.12212
  20
54.960724
  0
VERTEX
  5
29a
  8
Layer_3
  10
149.65479
  20
55.389437
  0
VERTEX
  5
29b
  8
Layer_3
  10
149.14843
  20
55.854866
  0
VERTEX
  5
29c
  8
Layer_3
  10
148.6037
  20
56.356413
  0
VERTEX
  5
29d
  8
Layer_3
  10
148.02124
  20
56.893478
  0
VERTEX
  5
29e
  8
Layer_3
  10
147.4017
  20
57.465463
  0
VERTEX
  5
29f
  8
Layer_3
  10
146.74573
  20
58.071769
  0
VERTEX
  5
2a0
  8
Layer_3
  10
146.05398
  20
58.711799
  0
VERTEX
  5
2a1
  8
Layer_3
  10
145.32709
  20
59.384952
  0
VERTEX
  5
2a2
  8
Layer_3
  10
144.56571
  20
60.090631
  0
VERTEX
  5
2a3
  8
Layer_3
  10
143.77048
  20
60.828237
  0
VERTEX
  5
2a4
  8
Layer_3
  10
142.94206
  20
61.597171
  0
VERTEX
  5
2a5
  8
Layer_3
  10
142.08109
  20
62.396836
  0
VERTEX
  5
2a6
  8
Layer_3
  10
141.18822
  20
63.226631
  0
VERTEX
  5
2a7
  8
Layer_3
  10
140.2641
  20
64.085959
  0
VERTEX
  5
2a8
  8
Layer_3
  10
139.30937
  20
64.974221
  0
VERTEX
  5
2a9
  8
Layer_3
  10
138.32468
  20
65.890819
  0
VERTEX
  5
2aa
  8
Layer_3
  10
137.31068
  20
66.835153
  0
VERTEX
  5
2ab
  8
Layer_3
  10
136.26802
  20
67.806626
  0
VERTEX
  5
2ac
  8
Layer_3
  10
135.19733
  20
68.804638
  0
VERTEX
  5
2ad
  8
Layer_3
  10
134.09928
  20
69.828591
  0
VERTEX
  5
2ae
  8
Layer_3
  10
132.97451
  20
70.877887
  0
VERTEX
  5
2af
  8
Layer_3
  10
131.82366
  20
71.951927
  42
0.00088473962
  0
VERTEX
  5
2b0
  8
Layer_3
  10
108.96245
  20
93.234665
  42
-0.00091492344
  0
VERTEX
  5
2b1
  8
Layer_3
  10
98.056076
  20
103.38715
  0
VERTEX
  5
2b2
  8
Layer_3
  10
96.813738
  20
104.54694
  0
VERTEX
  5
2b3
  8
Layer_3
  10
95.605354
  20
105.67476
  0
VERTEX
  5
2b4
  8
Layer_3
  10
94.43108
  20
106.77046
  0
VERTEX
  5
2b5
  8
Layer_3
  10
93.291068
  20
107.83391
  0
VERTEX
  5
2b6
  8
Layer_3
  10
92.185471
  20
108.86497
  0
VERTEX
  5
2b7
  8
Layer_3
  10
91.114441
  20
109.86348
  0
VERTEX
  5
2b8
  8
Layer_3
  10
90.078132
  20
110.82932
  0
VERTEX
  5
2b9
  8
Layer_3
  10
89.076697
  20
111.76233
  0
VERTEX
  5
2ba
  8
Layer_3
  10
88.110287
  20
112.66238
  0
VERTEX
  5
2bb
  8
Layer_3
  10
87.179057
  20
113.52933
  0
VERTEX
  5
2bc
  8
Layer_3
  10
86.283158
  20
114.36303
  0
VERTEX
  5
2bd
  8
Layer_3
  10
85.422744
  20
115.16334
  0
VERTEX
  5
2be
  8
Layer_3
  10
84.597967
  20
115.93012
  0
VERTEX
  5
2bf
  8
Layer_3
  10
83.80898
  20
116.66323
  0
VERTEX
  5
2c0
  8
Layer_3
  10
83.055936
  20
117.36252
  0
VERTEX
  5
2c1
  8
Layer_3
  10
82.338988
  20
118.02786
  0
VERTEX
  5
2c2
  8
Layer_3
  10
81.658289
  20
118.6591
  0
VERTEX
  5
2c3
  8
Layer_3
  10
81.01399
  20
119.2561
  0
VERTEX
  5
2c4
  8
Layer_3
  10
80.406246
  20
119.81872
  0
VERTEX
  5
2c5
  8
Layer_3
  10
79.835209
  20
120.34682
  0
VERTEX
  5
2c6
  8
Layer_3
  10
79.301032
  20
120.84026
  0
VERTEX
  5
2c7
  8
Layer_3
  10
78.803867
  20
121.29888
  0
VERTEX
  5
2c8
  8
Layer_3
  10
78.343868
  20
121.72256
  0
VERTEX
  5
2c9
  8
Layer_3
  10
77.921187
  20
122.11116
  0
VERTEX
  5
2ca
  8
Layer_3
  10
77.535977
  20
122.46451
  0
VERTEX
  5
2cb
  8
Layer_3
  10
77.18839
  20
122.7825
  0
VERTEX
  5
2cc
  8
Layer_3
  10
76.87858
  20
123.06497
  0
VERTEX
  5
2cd
  8
Layer_3
  10
76.6067
  20
123.31179
  0
VERTEX
  5
2ce
  8
Layer_3
  10
76.372902
  20
123.5228
  0
VERTEX
  5
2cf
  8
Layer_3
  10
76.177338
  20
123.69788
  0
VERTEX
  5
2d0
  8
Layer_3
  10
76.020163
  20
123.83687
  0
VERTEX
  5
2d1
  8
Layer_3
  10
75.901528
  20
123.93964
  0
VERTEX
  5
2d2
  8
Layer_3
  10
75.474835
  20
124.32553
  0
VERTEX
  5
2d3
  8
Layer_3
  10
75.123068
  20
124.68613
  0
VERTEX
  5
2d4
  8
Layer_3
  10
74.986679
  20
124.84432
  0
VERTEX
  5
2d5
  8
Layer_3
  10
74.882695
  20
124.98106
  0
VERTEX
  5
2d6
  8
Layer_3
  10
74.815677
  20
125.09128
  0
VERTEX
  5
2d7
  8
Layer_3
  10
74.790181
  20
125.16995
  0
VERTEX
  5
2d8
  8
Layer_3
  10
74.796606
  20
125.21237
  0
VERTEX
  5
2d9
  8
Layer_3
  10
74.818571
  20
125.27751
  0
VERTEX
  5
2da
  8
Layer_3
  10
74.855294
  20
125.36403
  0
VERTEX
  5
2db
  8
Layer_3
  10
74.905989
  20
125.47055
  0
VERTEX
  5
2dc
  8
Layer_3
  10
75.046165
  20
125.73822
  0
VERTEX
  5
2dd
  8
Layer_3
  10
75.232828
  20
126.06965
  0
VERTEX
  5
2de
  8
Layer_3
  10
75.459709
  20
126.454
  0
VERTEX
  5
2df
  8
Layer_3
  10
75.720536
  20
126.88041
  0
VERTEX
  5
2e0
  8
Layer_3
  10
76.00904
  20
127.33803
  0
VERTEX
  5
2e1
  8
Layer_3
  10
76.31895
  20
127.81601
  42
0.0018236994
  0
VERTEX
  5
2e2
  8
Layer_3
  10
82.588226
  20
137.46844
  42
-0.00079484012
  0
VERTEX
  5
2e3
  8
Layer_3
  10
90.416145
  20
149.53448
  0
VERTEX
  5
2e4
  8
Layer_3
  10
93.519142
  20
154.29739
  0
VERTEX
  5
2e5
  8
Layer_3
  10
113.20064
  20
154.3477
  0
VERTEX
  5
2e6
  8
Layer_3
  10
115.20673
  20
154.35202
  0
VERTEX
  5
2e7
  8
Layer_3
  10
117.15891
  20
154.35462
  0
VERTEX
  5
2e8
  8
Layer_3
  10
119.04696
  20
154.35557
  0
VERTEX
  5
2e9
  8
Layer_3
  10
120.86067
  20
154.35492
  0
VERTEX
  5
2ea
  8
Layer_3
  10
122.58983
  20
154.35271
  0
VERTEX
  5
2eb
  8
Layer_3
  10
124.22424
  20
154.34902
  0
VERTEX
  5
2ec
  8
Layer_3
  10
125.00273
  20
154.34663
  0
VERTEX
  5
2ed
  8
Layer_3
  10
125.7537
  20
154.34388
  0
VERTEX
  5
2ee
  8
Layer_3
  10
126.47587
  20
154.34079
  0
VERTEX
  5
2ef
  8
Layer_3
  10
127.16798
  20
154.33737
  0
VERTEX
  5
2f0
  8
Layer_3
  10
127.82874
  20
154.3336
  0
VERTEX
  5
2f1
  8
Layer_3
  10
128.45688
  20
154.32952
  0
VERTEX
  5
2f2
  8
Layer_3
  10
129.05113
  20
154.32511
  0
VERTEX
  5
2f3
  8
Layer_3
  10
129.61021
  20
154.32039
  0
VERTEX
  5
2f4
  8
Layer_3
  10
130.13283
  20
154.31536
  0
VERTEX
  5
2f5
  8
Layer_3
  10
130.61773
  20
154.31004
  0
VERTEX
  5
2f6
  8
Layer_3
  10
131.06363
  20
154.30442
  0
VERTEX
  5
2f7
  8
Layer_3
  10
131.46926
  20
154.29852
  0
VERTEX
  5
2f8
  8
Layer_3
  10
131.83333
  20
154.29234
  0
VERTEX
  5
2f9
  8
Layer_3
  10
132.15458
  20
154.28589
  0
VERTEX
  5
2fa
  8
Layer_3
  10
132.43172
  20
154.27918
  0
VERTEX
  5
2fb
  8
Layer_3
  10
132.66348
  20
154.2722
  0
VERTEX
  5
2fc
  8
Layer_3
  10
132.84858
  20
154.26498
  0
VERTEX
  5
2fd
  8
Layer_3
  10
132.98575
  20
154.25751
  0
VERTEX
  5
2fe
  8
Layer_3
  10
133.07371
  20
154.2498
  0
VERTEX
  5
2ff
  8
Layer_3
  10
133.11119
  20
154.24186
  0
VERTEX
  5
300
  8
Layer_3
  10
133.16311
  20
154.18422
  0
VERTEX
  5
301
  8
Layer_3
  10
133.26965
  20
154.04631
  0
VERTEX
  5
302
  8
Layer_3
  10
133.42788
  20
153.83234
  0
VERTEX
  5
303
  8
Layer_3
  10
133.63485
  20
153.54651
  0
VERTEX
  5
304
  8
Layer_3
  10
133.88763
  20
153.19302
  0
VERTEX
  5
305
  8
Layer_3
  10
134.18327
  20
152.77607
  0
VERTEX
  5
306
  8
Layer_3
  10
134.51882
  20
152.29988
  0
VERTEX
  5
307
  8
Layer_3
  10
134.89135
  20
151.76865
  0
VERTEX
  5
308
  8
Layer_3
  10
135.29791
  20
151.18657
  0
VERTEX
  5
309
  8
Layer_3
  10
135.73557
  20
150.55786
  0
VERTEX
  5
30a
  8
Layer_3
  10
136.20137
  20
149.88672
  0
VERTEX
  5
30b
  8
Layer_3
  10
136.69238
  20
149.17735
  0
VERTEX
  5
30c
  8
Layer_3
  10
137.20566
  20
148.43396
  0
VERTEX
  5
30d
  8
Layer_3
  10
137.73826
  20
147.66075
  0
VERTEX
  5
30e
  8
Layer_3
  10
138.28724
  20
146.86192
  0
VERTEX
  5
30f
  8
Layer_3
  10
138.84966
  20
146.04168
  42
0.00029069821
  0
VERTEX
  5
310
  8
Layer_3
  10
148.38466
  20
132.1347
  0
VERTEX
  5
311
  8
Layer_3
  10
152.41025
  20
126.27177
  0
VERTEX
  5
312
  8
Layer_3
  10
162.12122
  20
140.05676
  0
VERTEX
  5
313
  8
Layer_3
  10
163.11079
  20
141.46244
  0
VERTEX
  5
314
  8
Layer_3
  10
164.07331
  20
142.83147
  0
VERTEX
  5
315
  8
Layer_3
  10
165.00374
  20
144.15667
  0
VERTEX
  5
316
  8
Layer_3
  10
165.89709
  20
145.43083
  0
VERTEX
  5
317
  8
Layer_3
  10
166.74833
  20
146.64674
  0
VERTEX
  5
318
  8
Layer_3
  10
167.55245
  20
147.79718
  0
VERTEX
  5
319
  8
Layer_3
  10
168.30445
  20
148.87496
  0
VERTEX
  5
31a
  8
Layer_3
  10
168.99929
  20
149.87286
  0
VERTEX
  5
31b
  8
Layer_3
  10
169.32372
  20
150.3396
  0
VERTEX
  5
31c
  8
Layer_3
  10
169.63198
  20
150.78367
  0
VERTEX
  5
31d
  8
Layer_3
  10
169.92345
  20
151.20417
  0
VERTEX
  5
31e
  8
Layer_3
  10
170.1975
  20
151.6002
  0
VERTEX
  5
31f
  8
Layer_3
  10
170.4535
  20
151.97085
  0
VERTEX
  5
320
  8
Layer_3
  10
170.69083
  20
152.31522
  0
VERTEX
  5
321
  8
Layer_3
  10
170.90887
  20
152.63242
  0
VERTEX
  5
322
  8
Layer_3
  10
171.10697
  20
152.92154
  0
VERTEX
  5
323
  8
Layer_3
  10
171.28452
  20
153.18168
  0
VERTEX
  5
324
  8
Layer_3
  10
171.4409
  20
153.41194
  0
VERTEX
  5
325
  8
Layer_3
  10
171.57547
  20
153.61142
  0
VERTEX
  5
326
  8
Layer_3
  10
171.6876
  20
153.77922
  0
VERTEX
  5
327
  8
Layer_3
  10
171.77668
  20
153.91444
  0
VERTEX
  5
328
  8
Layer_3
  10
171.84207
  20
154.01617
  0
VERTEX
  5
329
  8
Layer_3
  10
171.88315
  20
154.08352
  0
VERTEX
  5
32a
  8
Layer_3
  10
171.89928
  20
154.11558
  0
VERTEX
  5
32b
  8
Layer_3
  10
171.97851
  20
154.23062
  0
VERTEX
  5
32c
  8
Layer_3
  10
172.14461
  20
154.34143
  0
VERTEX
  5
32d
  8
Layer_3
  10
172.37327
  20
154.43542
  0
VERTEX
  5
32e
  8
Layer_3
  10
172.64018
  20
154.49996
  0
VERTEX
  5
32f
  8
Layer_3
  10
172.73059
  20
154.51194
  0
VERTEX
  5
330
  8
Layer_3
  10
172.85609
  20
154.52391
  0
VERTEX
  5
331
  8
Layer_3
  10
173.01753
  20
154.53587
  0
VERTEX
  5
332
  8
Layer_3
  10
173.21576
  20
154.54785
  0
VERTEX
  5
333
  8
Layer_3
  10
173.45161
  20
154.55984
  0
VERTEX
  5
334
  8
Layer_3
  10
173.72593
  20
154.57188
  0
VERTEX
  5
335
  8
Layer_3
  10
174.03958
  20
154.58398
  0
VERTEX
  5
336
  8
Layer_3
  10
174.39338
  20
154.59615
  0
VERTEX
  5
337
  8
Layer_3
  10
174.78818
  20
154.60841
  0
VERTEX
  5
338
  8
Layer_3
  10
175.22484
  20
154.62077
  0
VERTEX
  5
339
  8
Layer_3
  10
175.70419
  20
154.63325
  0
VERTEX
  5
33a
  8
Layer_3
  10
176.22708
  20
154.64586
  0
VERTEX
  5
33b
  8
Layer_3
  10
176.79435
  20
154.65862
  0
VERTEX
  5
33c
  8
Layer_3
  10
177.40686
  20
154.67155
  0
VERTEX
  5
33d
  8
Layer_3
  10
178.06543
  20
154.68466
  0
VERTEX
  5
33e
  8
Layer_3
  10
178.77092
  20
154.69797
  0
VERTEX
  5
33f
  8
Layer_3
  10
179.52417
  20
154.71149
  0
VERTEX
  5
340
  8
Layer_3
  10
180.32603
  20
154.72524
  0
VERTEX
  5
341
  8
Layer_3
  10
181.17734
  20
154.73923
  0
VERTEX
  5
342
  8
Layer_3
  10
182.07894
  20
154.75348
  0
VERTEX
  5
343
  8
Layer_3
  10
183.03168
  20
154.768
  0
VERTEX
  5
344
  8
Layer_3
  10
184.0364
  20
154.78281
  0
VERTEX
  5
345
  8
Layer_3
  10
185.09396
  20
154.79793
  0
VERTEX
  5
346
  8
Layer_3
  10
186.20518
  20
154.81337
  0
VERTEX
  5
347
  8
Layer_3
  10
187.37092
  20
154.82915
  0
VERTEX
  5
348
  8
Layer_3
  10
188.59203
  20
154.84528
  0
VERTEX
  5
349
  8
Layer_3
  10
189.86934
  20
154.86177
  0
VERTEX
  5
34a
  8
Layer_3
  10
191.2037
  20
154.87865
  0
VERTEX
  5
34b
  8
Layer_3
  10
192.59595
  20
154.89593
  0
VERTEX
  5
34c
  8
Layer_3
  10
194.04695
  20
154.91362
  0
VERTEX
  5
34d
  8
Layer_3
  10
195.55753
  20
154.93174
  0
VERTEX
  5
34e
  8
Layer_3
  10
197.12854
  20
154.95031
  0
VERTEX
  5
34f
  8
Layer_3
  10
198.36883
  20
154.96518
  0
VERTEX
  5
350
  8
Layer_3
  10
199.57506
  20
154.98025
  0
VERTEX
  5
351
  8
Layer_3
  10
200.74096
  20
154.99542
  0
VERTEX
  5
352
  8
Layer_3
  10
201.86025
  20
155.01059
  0
VERTEX
  5
353
  8
Layer_3
  10
202.92665
  20
155.02565
  0
VERTEX
  5
354
  8
Layer_3
  10
203.93389
  20
155.0405
  0
VERTEX
  5
355
  8
Layer_3
  10
204.87568
  20
155.05503
  0
VERTEX
  5
356
  8
Layer_3
  10
205.74576
  20
155.06914
  0
VERTEX
  5
357
  8
Layer_3
  10
206.53785
  20
155.08273
  0
VERTEX
  5
358
  8
Layer_3
  10
207.24566
  20
155.09568
  0
VERTEX
  5
359
  8
Layer_3
  10
207.86293
  20
155.1079
  0
VERTEX
  5
35a
  8
Layer_3
  10
208.38337
  20
155.11927
  0
VERTEX
  5
35b
  8
Layer_3
  10
208.60532
  20
155.12461
  0
VERTEX
  5
35c
  8
Layer_3
  10
208.80071
  20
155.1297
  0
VERTEX
  5
35d
  8
Layer_3
  10
208.96875
  20
155.13453
  0
VERTEX
  5
35e
  8
Layer_3
  10
209.10867
  20
155.13908
  0
VERTEX
  5
35f
  8
Layer_3
  10
209.21967
  20
155.14335
  0
VERTEX
  5
360
  8
Layer_3
  10
209.30097
  20
155.14731
  0
VERTEX
  5
361
  8
Layer_3
  10
209.35179
  20
155.15096
  0
VERTEX
  5
362
  8
Layer_3
  10
209.37134
  20
155.15428
  0
VERTEX
  5
363
  8
Layer_3
  10
209.43504
  20
155.17208
  0
VERTEX
  5
364
  8
Layer_3
  10
209.55605
  20
155.17535
  0
VERTEX
  5
365
  8
Layer_3
  10
209.71701
  20
155.16454
  0
VERTEX
  5
366
  8
Layer_3
  10
209.90056
  20
155.14014
  42
0.0043015526
  0
VERTEX
  5
367
  8
Layer_3
  10
211.06679
  20
154.96106
  0
SEQEND
  0
POLYLINE
  5
369
  8
Layer_3
  62
1
  66
1
  10
0
  20
0
  30
0
  0
VERTEX
  5
369
  8
Layer_3
  10
209.55495
  20
154.48711
  0
VERTEX
  5
36a
  8
Layer_3
  10
209.53656
  20
154.48501
  0
VERTEX
  5
36b
  8
Layer_3
  10
209.48634
  20
154.48252
  0
VERTEX
  5
36c
  8
Layer_3
  10
209.40509
  20
154.47966
  0
VERTEX
  5
36d
  8
Layer_3
  10
209.29359
  20
154.47645
  0
VERTEX
  5
36e
  8
Layer_3
  10
209.15266
  20
154.4729
  0
VERTEX
  5
36f
  8
Layer_3
  10
208.98308
  20
154.46902
  0
VERTEX
  5
370
  8
Layer_3
  10
208.78565
  20
154.46482
  0
VERTEX
  5
371
  8
Layer_3
  10
208.56117
  20
154.46031
  0
VERTEX
  5
372
  8
Layer_3
  10
208.03424
  20
154.45043
  0
VERTEX
  5
373
  8
Layer_3
  10
207.40866
  20
154.43948
  0
VERTEX
  5
374
  8
Layer_3
  10
206.69079
  20
154.42755
  0
VERTEX
  5
375
  8
Layer_3
  10
205.88702
  20
154.41475
  0
VERTEX
  5
376
  8
Layer_3
  10
205.0037
  20
154.40118
  0
VERTEX
  5
377
  8
Layer_3
  10
204.04722
  20
154.38693
  0
VERTEX
  5
378
  8
Layer_3
  10
203.02393
  20
154.37211
  0
VERTEX
  5
379
  8
Layer_3
  10
201.94022
  20
154.35681
  0
VERTEX
  5
37a
  8
Layer_3
  10
200.80246
  20
154.34114
  0
VERTEX
  5
37b
  8
Layer_3
  10
199.61701
  20
154.32519
  0
VERTEX
  5
37c
  8
Layer_3
  10
198.39024
  20
154.30907
  0
VERTEX
  5
37d
  8
Layer_3
  10
197.12854
  20
154.29286
  0
VERTEX
  5
37e
  8
Layer_3
  10
194.60205
  20
154.26016
  0
VERTEX
  5
37f
  8
Layer_3
  10
192.1699
  20
154.22746
  0
VERTEX
  5
380
  8
Layer_3
  10
191.00751
  20
154.21138
  0
VERTEX
  5
381
  8
Layer_3
  10
189.89068
  20
154.19563
  0
VERTEX
  5
382
  8
Layer_3
  10
188.82673
  20
154.18032
  0
VERTEX
  5
383
  8
Layer_3
  10
187.823
  20
154.16555
  0
VERTEX
  5
384
  8
Layer_3
  10
186.8868
  20
154.15144
  0
VERTEX
  5
385
  8
Layer_3
  10
186.02546
  20
154.13809
  0
VERTEX
  5
386
  8
Layer_3
  10
185.24631
  20
154.12561
  0
VERTEX
  5
387
  8
Layer_3
  10
184.55668
  20
154.11412
  0
VERTEX
  5
388
  8
Layer_3
  10
184.24772
  20
154.10877
  0
VERTEX
  5
389
  8
Layer_3
  10
183.96389
  20
154.10371
  0
VERTEX
  5
38a
  8
Layer_3
  10
183.70609
  20
154.09896
  0
VERTEX
  5
38b
  8
Layer_3
  10
183.47526
  20
154.09451
  0
VERTEX
  5
38c
  8
Layer_3
  10
183.27229
  20
154.09039
  0
VERTEX
  5
38d
  8
Layer_3
  10
183.09812
  20
154.08662
  0
VERTEX
  5
38e
  8
Layer_3
  10
182.95365
  20
154.08319
  0
VERTEX
  5
38f
  8
Layer_3
  10
182.8398
  20
154.08014
  42
-0.0058847787
  0
VERTEX
  5
390
  8
Layer_3
  10
176.95761
  20
154.00223
  0
VERTEX
  5
391
  8
Layer_3
  10
172.98059
  20
153.97987
  0
VERTEX
  5
392
  8
Layer_3
  10
177.36462
  20
147.47055
  42
0.00015320874
  0
VERTEX
  5
393
  8
Layer_3
  10
184.74661
  20
136.51585
  42
-0.0010747651
  0
VERTEX
  5
394
  8
Layer_3
  10
189.49164
  20
129.45569
  0
VERTEX
  5
395
  8
Layer_3
  10
191.23872
  20
126.8409
  0
VERTEX
  5
396
  8
Layer_3
  10
191.78745
  20
127.65636
  0
VERTEX
  5
397
  8
Layer_3
  10
191.82742
  20
127.7151
  0
VERTEX
  5
398
  8
Layer_3
  10
191.89037
  20
127.80664
  0
VERTEX
  5
399
  8
Layer_3
  10
191.97566
  20
127.93009
  0
VERTEX
  5
39a
  8
Layer_3
  10
192.08267
  20
128.08458
  0
VERTEX
  5
39b
  8
Layer_3
  10
192.21081
  20
128.26921
  0
VERTEX
  5
39c
  8
Layer_3
  10
192.35944
  20
128.48311
  0
VERTEX
  5
39d
  8
Layer_3
  10
192.52795
  20
128.7254
  0
VERTEX
  5
39e
  8
Layer_3
  10
192.71573
  20
128.99519
  0
VERTEX
  5
39f
  8
Layer_3
  10
192.92216
  20
129.2916
  0
VERTEX
  5
3a0
  8
Layer_3
  10
193.14662
  20
129.61375
  0
VERTEX
  5
3a1
  8
Layer_3
  10
193.38851
  20
129.96075
  0
VERTEX
  5
3a2
  8
Layer_3
  10
193.64719
  20
130.33172
  0
VERTEX
  5
3a3
  8
Layer_3
  10
193.92206
  20
130.72579
  0
VERTEX
  5
3a4
  8
Layer_3
  10
194.21249
  20
131.14206
  0
VERTEX
  5
3a5
  8
Layer_3
  10
194.51788
  20
131.57966
  0
VERTEX
  5
3a6
  8
Layer_3
  10
194.83761
  20
132.0377
  0
VERTEX
  5
3a7
  8
Layer_3
  10
195.51762
  20
133.01157
  0
VERTEX
  5
3a8
  8
Layer_3
  10
196.24758
  20
134.05663
  0
VERTEX
  5
3a9
  8
Layer_3
  10
197.02256
  20
135.16581
  0
VERTEX
  5
3aa
  8
Layer_3
  10
197.83765
  20
136.33205
  0
VERTEX
  5
3ab
  8
Layer_3
  10
198.68791
  20
137.54829
  0
VERTEX
  5
3ac
  8
Layer_3
  10
199.56841
  20
138.80747
  0
VERTEX
  5
3ad
  8
Layer_3
  10
200.47423
  20
140.10254
  0
VERTEX
  5
3ae
  8
Layer_3
  10
201.40043
  20
141.42642
  0
VERTEX
  5
3af
  8
Layer_3
  10
202.32378
  20
142.74645
  0
VERTEX
  5
3b0
  8
Layer_3
  10
203.22125
  20
144.03019
  0
VERTEX
  5
3b1
  8
Layer_3
  10
204.08817
  20
145.27096
  0
VERTEX
  5
3b2
  8
Layer_3
  10
204.91991
  20
146.46209
  0
VERTEX
  5
3b3
  8
Layer_3
  10
205.71182
  20
147.59691
  0
VERTEX
  5
3b4
  8
Layer_3
  10
206.45924
  20
148.66872
  0
VERTEX
  5
3b5
  8
Layer_3
  10
207.15754
  20
149.67085
  0
VERTEX
  5
3b6
  8
Layer_3
  10
207.80207
  20
150.59663
  0
VERTEX
  5
3b7
  8
Layer_3
  10
208.10271
  20
151.0288
  0
VERTEX
  5
3b8
  8
Layer_3
  10
208.38817
  20
151.43937
  0
VERTEX
  5
3b9
  8
Layer_3
  10
208.65786
  20
151.82752
  0
VERTEX
  5
3ba
  8
Layer_3
  10
208.9112
  20
152.1924
  0
VERTEX
  5
3bb
  8
Layer_3
  10
209.14761
  20
152.53319
  0
VERTEX
  5
3bc
  8
Layer_3
  10
209.36651
  20
152.84904
  0
VERTEX
  5
3bd
  8
Layer_3
  10
209.56733
  20
153.13913
  0
VERTEX
  5
3be
  8
Layer_3
  10
209.74947
  20
153.40261
  0
VERTEX
  5
3bf
  8
Layer_3
  10
209.91235
  20
153.63866
  0
VERTEX
  5
3c0
  8
Layer_3
  10
210.05541
  20
153.84643
  0
VERTEX
  5
3c1
  8
Layer_3
  10
210.17805
  20
154.0251
  0
VERTEX
  5
3c2
  8
Layer_3
  10
210.27969
  20
154.17382
  0
VERTEX
  5
3c3
  8
Layer_3
  10
210.35976
  20
154.29177
  0
VERTEX
  5
3c4
  8
Layer_3
  10
210.41767
  20
154.37811
  0
VERTEX
  5
3c5
  8
Layer_3
  10
210.45284
  20
154.432
  0
VERTEX
  5
3c6
  8
Layer_3
  10
210.46469
  20
154.45261
  0
VERTEX
  5
3c7
  8
Layer_3
  10
210.42887
  20
154.47763
  0
VERTEX
  5
3c8
  8
Layer_3
  10
210.33376
  20
154.49814
  0
VERTEX
  5
3c9
  8
Layer_3
  10
210.19788
  20
154.51343
  0
VERTEX
  5
3ca
  8
Layer_3
  10
210.03974
  20
154.52281
  0
VERTEX
  5
3cb
  8
Layer_3
  10
209.87786
  20
154.52557
  0
VERTEX
  5
3cc
  8
Layer_3
  10
209.73076
  20
154.52101
  0
VERTEX
  5
3cd
  8
Layer_3
  10
209.61695
  20
154.50842
  0
VERTEX
  5
3ce
  8
Layer_3
  10
209.55495
  20
154.48711
  0
SEQEND
  0
POLYLINE
  5
3d0
  8
Layer_3
  62
1
  66
1
  10
0
  20
0
  30
0
  0
VERTEX
  5
3d0
  8
Layer_3
  10
201.58698
  20
140.56121
  0
VERTEX
  5
3d1
  8
Layer_3
  10
200.61528
  20
139.17189
  0
VERTEX
  5
3d2
  8
Layer_3
  10
199.67082
  20
137.81993
  0
VERTEX
  5
3d3
  8
Layer_3
  10
198.7585
  20
136.5124
  0
VERTEX
  5
3d4
  8
Layer_3
  10
197.88321
  20
135.25634
  0
VERTEX
  5
3d5
  8
Layer_3
  10
197.04984
  20
134.05885
  0
VERTEX
  5
3d6
  8
Layer_3
  10
196.26328
  20
132.92699
  0
VERTEX
  5
3d7
  8
Layer_3
  10
195.52842
  20
131.86782
  0
VERTEX
  5
3d8
  8
Layer_3
  10
194.85014
  20
130.88842
  0
VERTEX
  5
3d9
  8
Layer_3
  10
194.53376
  20
130.43084
  0
VERTEX
  5
3da
  8
Layer_3
  10
194.23335
  20
129.99586
  0
VERTEX
  5
3db
  8
Layer_3
  10
193.94954
  20
129.58435
  0
VERTEX
  5
3dc
  8
Layer_3
  10
193.68293
  20
129.19719
  0
VERTEX
  5
3dd
  8
Layer_3
  10
193.43414
  20
128.83529
  0
VERTEX
  5
3de
  8
Layer_3
  10
193.20378
  20
128.49951
  0
VERTEX
  5
3df
  8
Layer_3
  10
192.99245
  20
128.19074
  0
VERTEX
  5
3e0
  8
Layer_3
  10
192.80077
  20
127.90986
  0
VERTEX
  5
3e1
  8
Layer_3
  10
192.62936
  20
127.65776
  0
VERTEX
  5
3e2
  8
Layer_3
  10
192.47881
  20
127.43533
  0
VERTEX
  5
3e3
  8
Layer_3
  10
192.34975
  20
127.24343
  0
VERTEX
  5
3e4
  8
Layer_3
  10
192.24279
  20
127.08297
  0
VERTEX
  5
3e5
  8
Layer_3
  10
192.15853
  20
126.95482
  0
VERTEX
  5
3e6
  8
Layer_3
  10
192.09758
  20
126.85987
  0
VERTEX
  5
3e7
  8
Layer_3
  10
192.06057
  20
126.79899
  0
VERTEX
  5
3e8
  8
Layer_3
  10
192.0481
  20
126.77308
  0
VERTEX
  5
3e9
  8
Layer_3
  10
192.06824
  20
126.7661
  0
VERTEX
  5
3ea
  8
Layer_3
  10
192.12798
  20
126.75965
  0
VERTEX
  5
3eb
  8
Layer_3
  10
192.22627
  20
126.75374
  0
VERTEX
  5
3ec
  8
Layer_3
  10
192.36205
  20
126.74836
  0
VERTEX
  5
3ed
  8
Layer_3
  10
192.53427
  20
126.7435
  0
VERTEX
  5
3ee
  8
Layer_3
  10
192.74188
  20
126.73914
  0
VERTEX
  5
3ef
  8
Layer_3
  10
192.98382
  20
126.73529
  0
VERTEX
  5
3f0
  8
Layer_3
  10
193.25906
  20
126.73193
  0
VERTEX
  5
3f1
  8
Layer_3
  10
193.56654
  20
126.72905
  0
VERTEX
  5
3f2
  8
Layer_3
  10
193.9052
  20
126.72665
  0
VERTEX
  5
3f3
  8
Layer_3
  10
194.274
  20
126.72472
  0
VERTEX
  5
3f4
  8
Layer_3
  10
194.67188
  20
126.72325
  0
VERTEX
  5
3f5
  8
Layer_3
  10
195.09779
  20
126.72223
  0
VERTEX
  5
3f6
  8
Layer_3
  10
195.55069
  20
126.72165
  0
VERTEX
  5
3f7
  8
Layer_3
  10
196.02952
  20
126.7215
  0
VERTEX
  5
3f8
  8
Layer_3
  10
196.53323
  20
126.72178
  0
VERTEX
  5
3f9
  8
Layer_3
  10
197.61109
  20
126.72358
  0
VERTEX
  5
3fa
  8
Layer_3
  10
198.77586
  20
126.72699
  0
VERTEX
  5
3fb
  8
Layer_3
  10
200.01913
  20
126.73193
  0
VERTEX
  5
3fc
  8
Layer_3
  10
201.3325
  20
126.73834
  0
VERTEX
  5
3fd
  8
Layer_3
  10
202.70756
  20
126.74614
  0
VERTEX
  5
3fe
  8
Layer_3
  10
204.1359
  20
126.75528
  0
VERTEX
  5
3ff
  8
Layer_3
  10
205.60911
  20
126.76569
  0
VERTEX
  5
400
  8
Layer_3
  10
207.11878
  20
126.7773
  0
VERTEX
  5
401
  8
Layer_3
  10
213.35397
  20
126.83436
  0
VERTEX
  5
402
  8
Layer_3
  10
219.49997
  20
126.90524
  0
VERTEX
  5
403
  8
Layer_3
  10
220.95948
  20
126.92461
  0
VERTEX
  5
404
  8
Layer_3
  10
222.37137
  20
126.94451
  0
VERTEX
  5
405
  8
Layer_3
  10
223.72724
  20
126.96488
  0
VERTEX
  5
406
  8
Layer_3
  10
225.01868
  20
126.98563
  0
VERTEX
  5
407
  8
Layer_3
  10
226.23729
  20
127.00671
  0
VERTEX
  5
408
  8
Layer_3
  10
227.37465
  20
127.02805
  0
VERTEX
  5
409
  8
Layer_3
  10
228.42236
  20
127.04957
  0
VERTEX
  5
40a
  8
Layer_3
  10
229.37201
  20
127.07123
  0
VERTEX
  5
40b
  8
Layer_3
  10
230.39194
  20
127.09587
  0
VERTEX
  5
40c
  8
Layer_3
  10
229.3064
  20
128.63058
  0
VERTEX
  5
40d
  8
Layer_3
  10
229.2398
  20
128.72497
  0
VERTEX
  5
40e
  8
Layer_3
  10
229.15234
  20
128.84925
  0
VERTEX
  5
40f
  8
Layer_3
  10
229.04462
  20
129.00258
  0
VERTEX
  5
410
  8
Layer_3
  10
228.91727
  20
129.18407
  0
VERTEX
  5
411
  8
Layer_3
  10
228.77087
  20
129.39287
  0
VERTEX
  5
412
  8
Layer_3
  10
228.60605
  20
129.6281
  0
VERTEX
  5
413
  8
Layer_3
  10
228.4234
  20
129.8889
  0
VERTEX
  5
414
  8
Layer_3
  10
228.22353
  20
130.1744
  0
VERTEX
  5
415
  8
Layer_3
  10
228.00706
  20
130.48373
  0
VERTEX
  5
416
  8
Layer_3
  10
227.77457
  20
130.81602
  0
VERTEX
  5
417
  8
Layer_3
  10
227.5267
  20
131.1704
  0
VERTEX
  5
418
  8
Layer_3
  10
227.26403
  20
131.54601
  0
VERTEX
  5
419
  8
Layer_3
  10
226.69675
  20
132.35743
  0
VERTEX
  5
41a
  8
Layer_3
  10
226.07759
  20
133.24334
  0
VERTEX
  5
41b
  8
Layer_3
  10
225.4114
  20
134.19678
  0
VERTEX
  5
41c
  8
Layer_3
  10
224.70303
  20
135.21081
  0
VERTEX
  5
41d
  8
Layer_3
  10
223.95735
  20
136.27849
  0
VERTEX
  5
41e
  8
Layer_3
  10
223.17921
  20
137.39286
  0
VERTEX
  5
41f
  8
Layer_3
  10
222.37345
  20
138.54699
  0
VERTEX
  5
420
  8
Layer_3
  10
221.54493
  20
139.73392
  0
VERTEX
  5
421
  8
Layer_3
  10
220.69851
  20
140.94672
  0
VERTEX
  5
422
  8
Layer_3
  10
219.83904
  20
142.17843
  0
VERTEX
  5
423
  8
Layer_3
  10
218.98434
  20
143.40218
  0
VERTEX
  5
424
  8
Layer_3
  10
218.15193
  20
144.59161
  0
VERTEX
  5
425
  8
Layer_3
  10
217.34617
  20
145.74057
  0
VERTEX
  5
426
  8
Layer_3
  10
216.57146
  20
146.8429
  0
VERTEX
  5
427
  8
Layer_3
  10
215.83218
  20
147.89244
  0
VERTEX
  5
428
  8
Layer_3
  10
215.1327
  20
148.88302
  0
VERTEX
  5
429
  8
Layer_3
  10
214.47742
  20
149.8085
  0
VERTEX
  5
42a
  8
Layer_3
  10
213.87071
  20
150.6627
  0
VERTEX
  5
42b
  8
Layer_3
  10
213.58694
  20
151.06115
  0
VERTEX
  5
42c
  8
Layer_3
  10
213.31695
  20
151.43948
  0
VERTEX
  5
42d
  8
Layer_3
  10
213.0613
  20
151.7969
  0
VERTEX
  5
42e
  8
Layer_3
  10
212.82054
  20
152.13267
  0
VERTEX
  5
42f
  8
Layer_3
  10
212.5952
  20
152.44599
  0
VERTEX
  5
430
  8
Layer_3
  10
212.38584
  20
152.73611
  0
VERTEX
  5
431
  8
Layer_3
  10
212.19301
  20
153.00225
  0
VERTEX
  5
432
  8
Layer_3
  10
212.01724
  20
153.24365
  0
VERTEX
  5
433
  8
Layer_3
  10
211.85911
  20
153.45952
  0
VERTEX
  5
434
  8
Layer_3
  10
211.71913
  20
153.64912
  0
VERTEX
  5
435
  8
Layer_3
  10
211.59788
  20
153.81165
  0
VERTEX
  5
436
  8
Layer_3
  10
211.49589
  20
153.94637
  0
VERTEX
  5
437
  8
Layer_3
  10
211.41371
  20
154.05248
  0
VERTEX
  5
438
  8
Layer_3
  10
211.3519
  20
154.12923
  0
VERTEX
  5
439
  8
Layer_3
  10
211.31099
  20
154.17585
  0
VERTEX
  5
43a
  8
Layer_3
  10
211.29153
  20
154.19156
  0
VERTEX
  5
43b
  8
Layer_3
  10
211.27057
  20
154.17373
  0
VERTEX
  5
43c
  8
Layer_3
  10
211.22517
  20
154.12084
  0
VERTEX
  5
43d
  8
Layer_3
  10
211.15596
  20
154.03376
  0
VERTEX
  5
43e
  8
Layer_3
  10
211.06356
  20
153.91336
  0
VERTEX
  5
43f
  8
Layer_3
  10
210.9486
  20
153.76051
  0
VERTEX
  5
440
  8
Layer_3
  10
210.81169
  20
153.57609
  0
VERTEX
  5
441
  8
Layer_3
  10
210.65346
  20
153.36098
  0
VERTEX
  5
442
  8
Layer_3
  10
210.47453
  20
153.11604
  0
VERTEX
  5
443
  8
Layer_3
  10
210.27552
  20
152.84214
  0
VERTEX
  5
444
  8
Layer_3
  10
210.05705
  20
152.54017
  0
VERTEX
  5
445
  8
Layer_3
  10
209.81975
  20
152.211
  0
VERTEX
  5
446
  8
Layer_3
  10
209.56423
  20
151.85549
  0
VERTEX
  5
447
  8
Layer_3
  10
209.29112
  20
151.47453
  0
VERTEX
  5
448
  8
Layer_3
  10
209.00105
  20
151.06899
  0
VERTEX
  5
449
  8
Layer_3
  10
208.69463
  20
150.63973
  0
VERTEX
  5
44a
  8
Layer_3
  10
208.37248
  20
150.18764
  0
VERTEX
  5
44b
  8
Layer_3
  10
207.68349
  20
149.21844
  0
VERTEX
  5
44c
  8
Layer_3
  10
206.93907
  20
148.16838
  0
VERTEX
  5
44d
  8
Layer_3
  10
206.14419
  20
147.04444
  0
VERTEX
  5
44e
  8
Layer_3
  10
205.30382
  20
145.85361
  0
VERTEX
  5
44f
  8
Layer_3
  10
204.42294
  20
144.60289
  0
VERTEX
  5
450
  8
Layer_3
  10
203.50652
  20
143.29926
  0
VERTEX
  5
451
  8
Layer_3
  10
202.55954
  20
141.9497
  0
VERTEX
  5
452
  8
Layer_3
  10
201.58698
  20
140.56121
  0
SEQEND
  0
POLYLINE
  5
454
  8
Layer_3
  62
1
  66
1
  10
0
  20
0
  30
0
  0
VERTEX
  5
454
  8
Layer_3
  10
97.06282
  20
149.90494
  42
-0.0015434842
  0
VERTEX
  5
455
  8
Layer_3
  10
106.20279
  20
136.30417
  0
VERTEX
  5
456
  8
Layer_3
  10
106.86764
  20
135.31136
  0
VERTEX
  5
457
  8
Layer_3
  10
107.51539
  20
134.34468
  0
VERTEX
  5
458
  8
Layer_3
  10
108.14261
  20
133.4092
  0
VERTEX
  5
459
  8
Layer_3
  10
108.74588
  20
132.51001
  0
VERTEX
  5
45a
  8
Layer_3
  10
109.3218
  20
131.65218
  0
VERTEX
  5
45b
  8
Layer_3
  10
109.86692
  20
130.84079
  0
VERTEX
  5
45c
  8
Layer_3
  10
110.37785
  20
130.08093
  0
VERTEX
  5
45d
  8
Layer_3
  10
110.85114
  20
129.37766
  0
VERTEX
  5
45e
  8
Layer_3
  10
111.2834
  20
128.73607
  0
VERTEX
  5
45f
  8
Layer_3
  10
111.67119
  20
128.16123
  0
VERTEX
  5
460
  8
Layer_3
  10
112.0111
  20
127.65823
  0
VERTEX
  5
461
  8
Layer_3
  10
112.29971
  20
127.23214
  0
VERTEX
  5
462
  8
Layer_3
  10
112.42371
  20
127.04953
  0
VERTEX
  5
463
  8
Layer_3
  10
112.53359
  20
126.88805
  0
VERTEX
  5
464
  8
Layer_3
  10
112.62895
  20
126.74833
  0
VERTEX
  5
465
  8
Layer_3
  10
112.70934
  20
126.63102
  0
VERTEX
  5
466
  8
Layer_3
  10
112.77434
  20
126.53675
  0
VERTEX
  5
467
  8
Layer_3
  10
112.82352
  20
126.46615
  0
VERTEX
  5
468
  8
Layer_3
  10
112.85646
  20
126.41985
  0
VERTEX
  5
469
  8
Layer_3
  10
112.87272
  20
126.3985
  0
VERTEX
  5
46a
  8
Layer_3
  10
112.92623
  20
126.39839
  0
VERTEX
  5
46b
  8
Layer_3
  10
113.02096
  20
126.4634
  0
VERTEX
  5
46c
  8
Layer_3
  10
113.15162
  20
126.58743
  0
VERTEX
  5
46d
  8
Layer_3
  10
113.31295
  20
126.76441
  0
VERTEX
  5
46e
  8
Layer_3
  10
113.49966
  20
126.98826
  0
VERTEX
  5
46f
  8
Layer_3
  10
113.70648
  20
127.25291
  0
VERTEX
  5
470
  8
Layer_3
  10
113.92814
  20
127.55228
  0
VERTEX
  5
471
  8
Layer_3
  10
114.15934
  20
127.88029
  0
VERTEX
  5
472
  8
Layer_3
  10
114.29256
  20
128.07308
  0
VERTEX
  5
473
  8
Layer_3
  10
114.45645
  20
128.30895
  0
VERTEX
  5
474
  8
Layer_3
  10
114.64869
  20
128.5846
  0
VERTEX
  5
475
  8
Layer_3
  10
114.86698
  20
128.89677
  0
VERTEX
  5
476
  8
Layer_3
  10
115.10898
  20
129.24214
  0
VERTEX
  5
477
  8
Layer_3
  10
115.3724
  20
129.61744
  0
VERTEX
  5
478
  8
Layer_3
  10
115.65491
  20
130.01939
  0
VERTEX
  5
479
  8
Layer_3
  10
115.9542
  20
130.44468
  0
VERTEX
  5
47a
  8
Layer_3
  10
116.59385
  20
131.35218
  0
VERTEX
  5
47b
  8
Layer_3
  10
117.27285
  20
132.31362
  0
VERTEX
  5
47c
  8
Layer_3
  10
117.97266
  20
133.30272
  0
VERTEX
  5
47d
  8
Layer_3
  10
118.67476
  20
134.29316
  42
-0.00057942422
  0
VERTEX
  5
47e
  8
Layer_3
  10
130.58598
  20
151.05974
  0
VERTEX
  5
47f
  8
Layer_3
  10
130.94093
  20
151.55984
  0
VERTEX
  5
480
  8
Layer_3
  10
131.27206
  20
152.03093
  0
VERTEX
  5
481
  8
Layer_3
  10
131.57212
  20
152.46239
  0
VERTEX
  5
482
  8
Layer_3
  10
131.83389
  20
152.84358
  0
VERTEX
  5
483
  8
Layer_3
  10
132.05009
  20
153.16386
  0
VERTEX
  5
484
  8
Layer_3
  10
132.2135
  20
153.41259
  0
VERTEX
  5
485
  8
Layer_3
  10
132.27314
  20
153.5068
  0
VERTEX
  5
486
  8
Layer_3
  10
132.31686
  20
153.57914
  0
VERTEX
  5
487
  8
Layer_3
  10
132.34375
  20
153.62828
  0
VERTEX
  5
488
  8
Layer_3
  10
132.35292
  20
153.65288
  0
VERTEX
  5
489
  8
Layer_3
  10
132.32813
  20
153.65879
  0
VERTEX
  5
48a
  8
Layer_3
  10
132.25458
  20
153.66463
  0
VERTEX
  5
48b
  8
Layer_3
  10
132.13348
  20
153.67038
  0
VERTEX
  5
48c
  8
Layer_3
  10
131.96603
  20
153.67604
  0
VERTEX
  5
48d
  8
Layer_3
  10
131.75347
  20
153.68161
  0
VERTEX
  5
48e
  8
Layer_3
  10
131.497
  20
153.68707
  0
VERTEX
  5
48f
  8
Layer_3
  10
131.19785
  20
153.69242
  0
VERTEX
  5
490
  8
Layer_3
  10
130.85721
  20
153.69765
  0
VERTEX
  5
491
  8
Layer_3
  10
130.47631
  20
153.70275
  0
VERTEX
  5
492
  8
Layer_3
  10
130.05636
  20
153.70772
  0
VERTEX
  5
493
  8
Layer_3
  10
129.59859
  20
153.71255
  0
VERTEX
  5
494
  8
Layer_3
  10
129.10419
  20
153.71723
  0
VERTEX
  5
495
  8
Layer_3
  10
128.57439
  20
153.72176
  0
VERTEX
  5
496
  8
Layer_3
  10
128.0104
  20
153.72612
  0
VERTEX
  5
497
  8
Layer_3
  10
127.41344
  20
153.7303
  0
VERTEX
  5
498
  8
Layer_3
  10
126.78473
  20
153.73431
  0
VERTEX
  5
499
  8
Layer_3
  10
126.12546
  20
153.73814
  0
VERTEX
  5
49a
  8
Layer_3
  10
125.43687
  20
153.74177
  0
VERTEX
  5
49b
  8
Layer_3
  10
124.72017
  20
153.7452
  0
VERTEX
  5
49c
  8
Layer_3
  10
123.97656
  20
153.74842
  0
VERTEX
  5
49d
  8
Layer_3
  10
122.41352
  20
153.75422
  0
VERTEX
  5
49e
  8
Layer_3
  10
120.75745
  20
153.75909
  0
VERTEX
  5
49f
  8
Layer_3
  10
119.01808
  20
153.76298
  0
VERTEX
  5
4a0
  8
Layer_3
  10
117.20513
  20
153.76583
  0
VERTEX
  5
4a1
  8
Layer_3
  10
115.32832
  20
153.76759
  0
VERTEX
  5
4a2
  8
Layer_3
  10
113.39736
  20
153.76819
  0
VERTEX
  5
4a3
  8
Layer_3
  10
94.441803
  20
153.76819
  0
VERTEX
  5
4a4
  8
Layer_3
  10
97.06282
  20
149.90494
  0
SEQEND
  0
POLYLINE
  5
4a6
  8
Layer_3
  62
1
  66
1
  10
0
  20
0
  30
0
  0
VERTEX
  5
4a6
  8
Layer_3
  10
92.350616
  20
151.37512
  42
-0.0031748954
  0
VERTEX
  5
4a7
  8
Layer_3
  10
89.25383
  20
146.57089
  42
0.00074456236
  0
VERTEX
  5
4a8
  8
Layer_3
  10
81.577942
  20
134.75049
  0
VERTEX
  5
4a9
  8
Layer_3
  10
75.629051
  20
125.57615
  0
VERTEX
  5
4aa
  8
Layer_3
  10
93.777184
  20
125.63229
  0
VERTEX
  5
4ab
  8
Layer_3
  10
95.627204
  20
125.63845
  0
VERTEX
  5
4ac
  8
Layer_3
  10
97.427926
  20
125.64533
  0
VERTEX
  5
4ad
  8
Layer_3
  10
99.169914
  20
125.65285
  0
VERTEX
  5
4ae
  8
Layer_3
  10
100.84373
  20
125.66094
  0
VERTEX
  5
4af
  8
Layer_3
  10
102.43995
  20
125.66951
  0
VERTEX
  5
4b0
  8
Layer_3
  10
103.94913
  20
125.67851
  0
VERTEX
  5
4b1
  8
Layer_3
  10
104.66813
  20
125.68314
  0
VERTEX
  5
4b2
  8
Layer_3
  10
105.36184
  20
125.68784
  0
VERTEX
  5
4b3
  8
Layer_3
  10
106.02907
  20
125.69262
  0
VERTEX
  5
4b4
  8
Layer_3
  10
106.66865
  20
125.69746
  0
VERTEX
  5
4b5
  8
Layer_3
  10
107.27939
  20
125.70234
  0
VERTEX
  5
4b6
  8
Layer_3
  10
107.86011
  20
125.70726
  0
VERTEX
  5
4b7
  8
Layer_3
  10
108.40965
  20
125.71222
  0
VERTEX
  5
4b8
  8
Layer_3
  10
108.92681
  20
125.7172
  0
VERTEX
  5
4b9
  8
Layer_3
  10
109.41041
  20
125.72219
  0
VERTEX
  5
4ba
  8
Layer_3
  10
109.85929
  20
125.72718
  0
VERTEX
  5
4bb
  8
Layer_3
  10
110.27226
  20
125.73217
  0
VERTEX
  5
4bc
  8
Layer_3
  10
110.64813
  20
125.73715
  0
VERTEX
  5
4bd
  8
Layer_3
  10
110.98574
  20
125.7421
  0
VERTEX
  5
4be
  8
Layer_3
  10
111.2839
  20
125.74702
  0
VERTEX
  5
4bf
  8
Layer_3
  10
111.54143
  20
125.75189
  0
VERTEX
  5
4c0
  8
Layer_3
  10
111.75716
  20
125.75672
  0
VERTEX
  5
4c1
  8
Layer_3
  10
111.9299
  20
125.76148
  0
VERTEX
  5
4c2
  8
Layer_3
  10
112.05847
  20
125.76617
  0
VERTEX
  5
4c3
  8
Layer_3
  10
112.1417
  20
125.77079
  0
VERTEX
  5
4c4
  8
Layer_3
  10
112.1784
  20
125.77532
  0
VERTEX
  5
4c5
  8
Layer_3
  10
112.18402
  20
125.79213
  0
VERTEX
  5
4c6
  8
Layer_3
  10
112.17336
  20
125.83275
  0
VERTEX
  5
4c7
  8
Layer_3
  10
112.14671
  20
125.89671
  0
VERTEX
  5
4c8
  8
Layer_3
  10
112.10438
  20
125.98356
  0
VERTEX
  5
4c9
  8
Layer_3
  10
112.04665
  20
126.09285
  0
VERTEX
  5
4ca
  8
Layer_3
  10
111.97381
  20
126.2241
  0
VERTEX
  5
4cb
  8
Layer_3
  10
111.88617
  20
126.37686
  0
VERTEX
  5
4cc
  8
Layer_3
  10
111.78401
  20
126.55068
  0
VERTEX
  5
4cd
  8
Layer_3
  10
111.5373
  20
126.95965
  0
VERTEX
  5
4ce
  8
Layer_3
  10
111.23605
  20
127.44733
  0
VERTEX
  5
4cf
  8
Layer_3
  10
110.8826
  20
128.01005
  0
VERTEX
  5
4d0
  8
Layer_3
  10
110.47928
  20
128.64415
  0
VERTEX
  5
4d1
  8
Layer_3
  10
110.02846
  20
129.34595
  0
VERTEX
  5
4d2
  8
Layer_3
  10
109.53247
  20
130.11179
  0
VERTEX
  5
4d3
  8
Layer_3
  10
108.99366
  20
130.93799
  0
VERTEX
  5
4d4
  8
Layer_3
  10
108.41437
  20
131.8209
  0
VERTEX
  5
4d5
  8
Layer_3
  10
107.79696
  20
132.75683
  0
VERTEX
  5
4d6
  8
Layer_3
  10
107.14376
  20
133.74212
  0
VERTEX
  5
4d7
  8
Layer_3
  10
106.45713
  20
134.7731
  0
VERTEX
  5
4d8
  8
Layer_3
  10
105.73941
  20
135.84611
  0
VERTEX
  5
4d9
  8
Layer_3
  10
105.02737
  20
136.90823
  0
VERTEX
  5
4da
  8
Layer_3
  10
104.33592
  20
137.93927
  0
VERTEX
  5
4db
  8
Layer_3
  10
103.6652
  20
138.93906
  0
VERTEX
  5
4dc
  8
Layer_3
  10
103.01531
  20
139.90743
  0
VERTEX
  5
4dd
  8
Layer_3
  10
102.38638
  20
140.84419
  0
VERTEX
  5
4de
  8
Layer_3
  10
101.77853
  20
141.74916
  0
VERTEX
  5
4df
  8
Layer_3
  10
101.19187
  20
142.62218
  0
VERTEX
  5
4e0
  8
Layer_3
  10
100.62653
  20
143.46307
  0
VERTEX
  5
4e1
  8
Layer_3
  10
100.08262
  20
144.27164
  0
VERTEX
  5
4e2
  8
Layer_3
  10
99.560268
  20
145.04773
  0
VERTEX
  5
4e3
  8
Layer_3
  10
99.059588
  20
145.79115
  0
VERTEX
  5
4e4
  8
Layer_3
  10
98.580702
  20
146.50173
  0
VERTEX
  5
4e5
  8
Layer_3
  10
98.123729
  20
147.1793
  0
VERTEX
  5
4e6
  8
Layer_3
  10
97.688788
  20
147.82367
  0
VERTEX
  5
4e7
  8
Layer_3
  10
97.275998
  20
148.43467
  0
VERTEX
  5
4e8
  8
Layer_3
  10
96.88548
  20
149.01212
  0
VERTEX
  5
4e9
  8
Layer_3
  10
96.517353
  20
149.55585
  0
VERTEX
  5
4ea
  8
Layer_3
  10
96.171736
  20
150.06568
  0
VERTEX
  5
4eb
  8
Layer_3
  10
95.848748
  20
150.54144
  0
VERTEX
  5
4ec
  8
Layer_3
  10
95.54851
  20
150.98294
  0
VERTEX
  5
4ed
  8
Layer_3
  10
95.271141
  20
151.39
  0
VERTEX
  5
4ee
  8
Layer_3
  10
95.016759
  20
151.76247
  0
VERTEX
  5
4ef
  8
Layer_3
  10
94.785485
  20
152.10015
  0
VERTEX
  5
4f0
  8
Layer_3
  10
94.577439
  20
152.40287
  0
VERTEX
  5
4f1
  8
Layer_3
  10
94.392738
  20
152.67045
  0
VERTEX
  5
4f2
  8
Layer_3
  10
94.231504
  20
152.90272
  0
VERTEX
  5
4f3
  8
Layer_3
  10
94.093856
  20
153.0995
  0
VERTEX
  5
4f4
  8
Layer_3
  10
93.979912
  20
153.26062
  0
VERTEX
  5
4f5
  8
Layer_3
  10
93.889793
  20
153.38589
  0
VERTEX
  5
4f6
  8
Layer_3
  10
93.823618
  20
153.47515
  0
VERTEX
  5
4f7
  8
Layer_3
  10
93.781507
  20
153.52821
  0
VERTEX
  5
4f8
  8
Layer_3
  10
93.763578
  20
153.54489
  0
VERTEX
  5
4f9
  8
Layer_3
  10
93.726948
  20
153.49851
  0
VERTEX
  5
4fa
  8
Layer_3
  10
93.638729
  20
153.37009
  0
VERTEX
  5
4fb
  8
Layer_3
  10
93.504719
  20
153.16853
  0
VERTEX
  5
4fc
  8
Layer_3
  10
93.330711
  20
152.90273
  0
VERTEX
  5
4fd
  8
Layer_3
  10
93.122501
  20
152.58159
  0
VERTEX
  5
4fe
  8
Layer_3
  10
92.885884
  20
152.21401
  0
VERTEX
  5
4ff
  8
Layer_3
  10
92.626657
  20
151.80889
  0
VERTEX
  5
500
  8
Layer_3
  10
92.350614
  20
151.37512
  0
SEQEND
  0
POLYLINE
  5
502
  8
Layer_3
  62
1
  66
1
  10
0
  20
0
  30
0
  0
VERTEX
  5
502
  8
Layer_3
  10
171.2634
  20
151.93278
  0
VERTEX
  5
503
  8
Layer_3
  10
171.19352
  20
151.83224
  0
VERTEX
  5
504
  8
Layer_3
  10
171.10277
  20
151.70211
  0
VERTEX
  5
505
  8
Layer_3
  10
170.99175
  20
151.54327
  0
VERTEX
  5
506
  8
Layer_3
  10
170.8611
  20
151.35659
  0
VERTEX
  5
507
  8
Layer_3
  10
170.71141
  20
151.14293
  0
VERTEX
  5
508
  8
Layer_3
  10
170.5433
  20
150.90317
  0
VERTEX
  5
509
  8
Layer_3
  10
170.35739
  20
150.63818
  0
VERTEX
  5
50a
  8
Layer_3
  10
170.15427
  20
150.34882
  0
VERTEX
  5
50b
  8
Layer_3
  10
169.93457
  20
150.03597
  0
VERTEX
  5
50c
  8
Layer_3
  10
169.6989
  20
149.7005
  0
VERTEX
  5
50d
  8
Layer_3
  10
169.44787
  20
149.34327
  0
VERTEX
  5
50e
  8
Layer_3
  10
169.18209
  20
148.96516
  0
VERTEX
  5
50f
  8
Layer_3
  10
168.60874
  20
148.14977
  0
VERTEX
  5
510
  8
Layer_3
  10
167.98374
  20
147.26128
  0
VERTEX
  5
511
  8
Layer_3
  10
167.31199
  20
146.30666
  0
VERTEX
  5
512
  8
Layer_3
  10
166.59838
  20
145.29286
  0
VERTEX
  5
513
  8
Layer_3
  10
165.84782
  20
144.22685
  0
VERTEX
  5
514
  8
Layer_3
  10
165.0652
  20
143.11559
  0
VERTEX
  5
515
  8
Layer_3
  10
164.25542
  20
141.96603
  0
VERTEX
  5
516
  8
Layer_3
  10
163.42337
  20
140.78515
  0
VERTEX
  5
517
  8
Layer_3
  10
162.57396
  20
139.57988
  0
VERTEX
  5
518
  8
Layer_3
  10
161.71207
  20
138.35721
  0
VERTEX
  5
519
  8
Layer_3
  10
160.85614
  20
137.14212
  0
VERTEX
  5
51a
  8
Layer_3
  10
160.02422
  20
135.95914
  0
VERTEX
  5
51b
  8
Layer_3
  10
159.2206
  20
134.81445
  0
VERTEX
  5
51c
  8
Layer_3
  10
158.4496
  20
133.71428
  0
VERTEX
  5
51d
  8
Layer_3
  10
157.71552
  20
132.66484
  0
VERTEX
  5
51e
  8
Layer_3
  10
157.02268
  20
131.67233
  0
VERTEX
  5
51f
  8
Layer_3
  10
156.37538
  20
130.74297
  0
VERTEX
  5
520
  8
Layer_3
  10
155.77792
  20
129.88296
  0
VERTEX
  5
521
  8
Layer_3
  10
155.49923
  20
129.48091
  0
VERTEX
  5
522
  8
Layer_3
  10
155.23462
  20
129.09852
  0
VERTEX
  5
523
  8
Layer_3
  10
154.98463
  20
128.73658
  0
VERTEX
  5
524
  8
Layer_3
  10
154.74978
  20
128.39585
  0
VERTEX
  5
525
  8
Layer_3
  10
154.53064
  20
128.07713
  0
VERTEX
  5
526
  8
Layer_3
  10
154.32772
  20
127.78117
  0
VERTEX
  5
527
  8
Layer_3
  10
154.14157
  20
127.50877
  0
VERTEX
  5
528
  8
Layer_3
  10
153.97273
  20
127.26068
  0
VERTEX
  5
529
  8
Layer_3
  10
153.82174
  20
127.0377
  0
VERTEX
  5
52a
  8
Layer_3
  10
153.68913
  20
126.8406
  0
VERTEX
  5
52b
  8
Layer_3
  10
153.57545
  20
126.67015
  0
VERTEX
  5
52c
  8
Layer_3
  10
153.48123
  20
126.52713
  0
VERTEX
  5
52d
  8
Layer_3
  10
153.40701
  20
126.41232
  0
VERTEX
  5
52e
  8
Layer_3
  10
153.35333
  20
126.32649
  0
VERTEX
  5
52f
  8
Layer_3
  10
153.32072
  20
126.27042
  0
VERTEX
  5
530
  8
Layer_3
  10
153.30974
  20
126.24488
  0
VERTEX
  5
531
  8
Layer_3
  10
153.33062
  20
126.17603
  0
VERTEX
  5
532
  8
Layer_3
  10
153.38747
  20
126.13209
  0
VERTEX
  5
533
  8
Layer_3
  10
153.4716
  20
126.1167
  0
VERTEX
  5
534
  8
Layer_3
  10
153.57434
  20
126.13353
  0
VERTEX
  5
535
  8
Layer_3
  10
153.65182
  20
126.14261
  0
VERTEX
  5
536
  8
Layer_3
  10
153.82624
  20
126.15269
  0
VERTEX
  5
537
  8
Layer_3
  10
154.09249
  20
126.16367
  0
VERTEX
  5
538
  8
Layer_3
  10
154.44544
  20
126.17545
  0
VERTEX
  5
539
  8
Layer_3
  10
154.87995
  20
126.18791
  0
VERTEX
  5
53a
  8
Layer_3
  10
155.3909
  20
126.20096
  0
VERTEX
  5
53b
  8
Layer_3
  10
155.97317
  20
126.21448
  0
VERTEX
  5
53c
  8
Layer_3
  10
156.62162
  20
126.22837
  0
VERTEX
  5
53d
  8
Layer_3
  10
157.33112
  20
126.24253
  0
VERTEX
  5
53e
  8
Layer_3
  10
158.09655
  20
126.25684
  0
VERTEX
  5
53f
  8
Layer_3
  10
158.91279
  20
126.27121
  0
VERTEX
  5
540
  8
Layer_3
  10
159.77469
  20
126.28552
  0
VERTEX
  5
541
  8
Layer_3
  10
160.67714
  20
126.29968
  0
VERTEX
  5
542
  8
Layer_3
  10
161.615
  20
126.31357
  0
VERTEX
  5
543
  8
Layer_3
  10
162.58315
  20
126.32708
  0
VERTEX
  5
544
  8
Layer_3
  10
163.57646
  20
126.34012
  0
VERTEX
  5
545
  8
Layer_3
  10
166.28669
  20
126.37503
  0
VERTEX
  5
546
  8
Layer_3
  10
168.92739
  20
126.40994
  0
VERTEX
  5
547
  8
Layer_3
  10
171.4841
  20
126.4446
  0
VERTEX
  5
548
  8
Layer_3
  10
173.94241
  20
126.4788
  0
VERTEX
  5
549
  8
Layer_3
  10
175.13015
  20
126.49566
  0
VERTEX
  5
54a
  8
Layer_3
  10
176.28788
  20
126.51231
  0
VERTEX
  5
54b
  8
Layer_3
  10
177.41379
  20
126.52872
  0
VERTEX
  5
54c
  8
Layer_3
  10
178.50607
  20
126.54488
  0
VERTEX
  5
54d
  8
Layer_3
  10
179.56293
  20
126.56075
  0
VERTEX
  5
54e
  8
Layer_3
  10
180.58256
  20
126.5763
  0
VERTEX
  5
54f
  8
Layer_3
  10
181.56315
  20
126.59151
  0
VERTEX
  5
550
  8
Layer_3
  10
182.5029
  20
126.60633
  0
VERTEX
  5
551
  8
Layer_3
  10
183.4
  20
126.62076
  0
VERTEX
  5
552
  8
Layer_3
  10
184.25266
  20
126.63475
  0
VERTEX
  5
553
  8
Layer_3
  10
185.05906
  20
126.64828
  0
VERTEX
  5
554
  8
Layer_3
  10
185.81741
  20
126.66132
  0
VERTEX
  5
555
  8
Layer_3
  10
186.5259
  20
126.67384
  0
VERTEX
  5
556
  8
Layer_3
  10
187.18272
  20
126.68582
  0
VERTEX
  5
557
  8
Layer_3
  10
187.78607
  20
126.69721
  0
VERTEX
  5
558
  8
Layer_3
  10
188.33415
  20
126.708
  0
VERTEX
  5
559
  8
Layer_3
  10
188.82515
  20
126.71816
  0
VERTEX
  5
55a
  8
Layer_3
  10
189.25726
  20
126.72766
  0
VERTEX
  5
55b
  8
Layer_3
  10
189.62869
  20
126.73646
  0
VERTEX
  5
55c
  8
Layer_3
  10
189.93763
  20
126.74454
  0
VERTEX
  5
55d
  8
Layer_3
  10
190.18228
  20
126.75188
  0
VERTEX
  5
55e
  8
Layer_3
  10
190.36082
  20
126.75844
  0
VERTEX
  5
55f
  8
Layer_3
  10
190.47146
  20
126.76419
  0
VERTEX
  5
560
  8
Layer_3
  10
190.5124
  20
126.7691
  0
VERTEX
  5
561
  8
Layer_3
  10
190.50072
  20
126.80971
  0
VERTEX
  5
562
  8
Layer_3
  10
190.4471
  20
126.90959
  0
VERTEX
  5
563
  8
Layer_3
  10
190.35576
  20
127.0621
  0
VERTEX
  5
564
  8
Layer_3
  10
190.23092
  20
127.26063
  0
VERTEX
  5
565
  8
Layer_3
  10
190.07683
  20
127.49857
  0
VERTEX
  5
566
  8
Layer_3
  10
189.8977
  20
127.7693
  0
VERTEX
  5
567
  8
Layer_3
  10
189.69777
  20
128.06619
  0
VERTEX
  5
568
  8
Layer_3
  10
189.48126
  20
128.38264
  0
VERTEX
  5
569
  8
Layer_3
  10
189.36859
  20
128.5467
  0
VERTEX
  5
56a
  8
Layer_3
  10
189.22395
  20
128.75841
  0
VERTEX
  5
56b
  8
Layer_3
  10
189.04846
  20
129.01608
  0
VERTEX
  5
56c
  8
Layer_3
  10
188.84324
  20
129.31806
  0
VERTEX
  5
56d
  8
Layer_3
  10
188.60942
  20
129.66268
  0
VERTEX
  5
56e
  8
Layer_3
  10
188.34811
  20
130.04828
  0
VERTEX
  5
56f
  8
Layer_3
  10
188.06043
  20
130.47319
  0
VERTEX
  5
570
  8
Layer_3
  10
187.74752
  20
130.93576
  0
VERTEX
  5
571
  8
Layer_3
  10
187.41049
  20
131.4343
  0
VERTEX
  5
572
  8
Layer_3
  10
187.05045
  20
131.96717
  0
VERTEX
  5
573
  8
Layer_3
  10
186.66855
  20
132.5327
  0
VERTEX
  5
574
  8
Layer_3
  10
186.26588
  20
133.12922
  0
VERTEX
  5
575
  8
Layer_3
  10
185.84359
  20
133.75507
  0
VERTEX
  5
576
  8
Layer_3
  10
185.40278
  20
134.40858
  0
VERTEX
  5
577
  8
Layer_3
  10
184.94458
  20
135.0881
  0
VERTEX
  5
578
  8
Layer_3
  10
184.47012
  20
135.79195
  0
VERTEX
  5
579
  8
Layer_3
  10
183.47687
  20
137.266
  0
VERTEX
  5
57a
  8
Layer_3
  10
182.43201
  20
138.81742
  0
VERTEX
  5
57b
  8
Layer_3
  10
181.34451
  20
140.43291
  0
VERTEX
  5
57c
  8
Layer_3
  10
180.22334
  20
142.09914
  0
VERTEX
  5
57d
  8
Layer_3
  10
177.91591
  20
145.53059
  0
VERTEX
  5
57e
  8
Layer_3
  10
175.5815
  20
149.00527
  0
VERTEX
  5
57f
  8
Layer_3
  10
175.00707
  20
149.85932
  0
VERTEX
  5
580
  8
Layer_3
  10
174.46475
  20
150.663
  0
VERTEX
  5
581
  8
Layer_3
  10
174.20948
  20
151.04029
  0
VERTEX
  5
582
  8
Layer_3
  10
173.96686
  20
151.39822
  0
VERTEX
  5
583
  8
Layer_3
  10
173.73843
  20
151.73451
  0
VERTEX
  5
584
  8
Layer_3
  10
173.52574
  20
152.04691
  0
VERTEX
  5
585
  8
Layer_3
  10
173.33031
  20
152.33315
  0
VERTEX
  5
586
  8
Layer_3
  10
173.1537
  20
152.59097
  0
VERTEX
  5
587
  8
Layer_3
  10
172.99745
  20
152.81812
  0
VERTEX
  5
588
  8
Layer_3
  10
172.86309
  20
153.01233
  0
VERTEX
  5
589
  8
Layer_3
  10
172.75217
  20
153.17134
  0
VERTEX
  5
58a
  8
Layer_3
  10
172.66623
  20
153.29289
  0
VERTEX
  5
58b
  8
Layer_3
  10
172.60681
  20
153.37472
  0
VERTEX
  5
58c
  8
Layer_3
  10
172.57545
  20
153.41457
  0
VERTEX
  5
58d
  8
Layer_3
  10
172.51925
  20
153.41602
  0
VERTEX
  5
58e
  8
Layer_3
  10
172.42148
  20
153.35197
  0
VERTEX
  5
58f
  8
Layer_3
  10
172.28753
  20
153.22851
  0
VERTEX
  5
590
  8
Layer_3
  10
172.12278
  20
153.05172
  0
VERTEX
  5
591
  8
Layer_3
  10
171.93261
  20
152.82768
  0
VERTEX
  5
592
  8
Layer_3
  10
171.7224
  20
152.56245
  0
VERTEX
  5
593
  8
Layer_3
  10
171.49754
  20
152.26213
  0
VERTEX
  5
594
  8
Layer_3
  10
171.2634
  20
151.93278
  0
SEQEND
  0
POLYLINE
  5
596
  8
Layer_3
  62
1
  66
1
  10
0
  20
0
  30
0
  0
VERTEX
  5
596
  8
Layer_3
  10
131.31187
  20
151.06131
  42
-0.0029928698
  0
VERTEX
  5
597
  8
Layer_3
  10
126.35857
  20
144.03067
  42
0.0005196928
  0
VERTEX
  5
598
  8
Layer_3
  10
120.95461
  20
136.41
  42
-0.00088713978
  0
VERTEX
  5
599
  8
Layer_3
  10
116.36965
  20
129.95361
  0
VERTEX
  5
59a
  8
Layer_3
  10
115.85093
  20
129.22465
  0
VERTEX
  5
59b
  8
Layer_3
  10
115.35992
  20
128.53282
  0
VERTEX
  5
59c
  8
Layer_3
  10
114.90789
  20
127.89413
  0
VERTEX
  5
59d
  8
Layer_3
  10
114.50608
  20
127.32455
  0
VERTEX
  5
59e
  8
Layer_3
  10
114.32753
  20
127.07068
  0
VERTEX
  5
59f
  8
Layer_3
  10
114.16575
  20
126.84007
  0
VERTEX
  5
5a0
  8
Layer_3
  10
114.02216
  20
126.63473
  0
VERTEX
  5
5a1
  8
Layer_3
  10
113.89816
  20
126.45667
  0
VERTEX
  5
5a2
  8
Layer_3
  10
113.79515
  20
126.30786
  0
VERTEX
  5
5a3
  8
Layer_3
  10
113.71455
  20
126.19032
  0
VERTEX
  5
5a4
  8
Layer_3
  10
113.65775
  20
126.10604
  0
VERTEX
  5
5a5
  8
Layer_3
  10
113.62617
  20
126.05702
  0
VERTEX
  5
5a6
  8
Layer_3
  10
113.62441
  20
126.01181
  0
VERTEX
  5
5a7
  8
Layer_3
  10
113.68467
  20
125.97194
  0
VERTEX
  5
5a8
  8
Layer_3
  10
113.81868
  20
125.93726
  0
VERTEX
  5
5a9
  8
Layer_3
  10
114.03816
  20
125.90765
  0
VERTEX
  5
5aa
  8
Layer_3
  10
114.18362
  20
125.8947
  0
VERTEX
  5
5ab
  8
Layer_3
  10
114.35485
  20
125.88297
  0
VERTEX
  5
5ac
  8
Layer_3
  10
114.55331
  20
125.87244
  0
VERTEX
  5
5ad
  8
Layer_3
  10
114.78048
  20
125.86309
  0
VERTEX
  5
5ae
  8
Layer_3
  10
115.03782
  20
125.85491
  0
VERTEX
  5
5af
  8
Layer_3
  10
115.32679
  20
125.84788
  0
VERTEX
  5
5b0
  8
Layer_3
  10
115.64887
  20
125.84198
  0
VERTEX
  5
5b1
  8
Layer_3
  10
116.00551
  20
125.8372
  0
VERTEX
  5
5b2
  8
Layer_3
  10
116.39819
  20
125.83352
  0
VERTEX
  5
5b3
  8
Layer_3
  10
116.82837
  20
125.83092
  0
VERTEX
  5
5b4
  8
Layer_3
  10
117.29752
  20
125.82939
  0
VERTEX
  5
5b5
  8
Layer_3
  10
117.8071
  20
125.82891
  0
VERTEX
  5
5b6
  8
Layer_3
  10
118.35858
  20
125.82947
  0
VERTEX
  5
5b7
  8
Layer_3
  10
118.95343
  20
125.83104
  0
VERTEX
  5
5b8
  8
Layer_3
  10
119.59312
  20
125.83362
  0
VERTEX
  5
5b9
  8
Layer_3
  10
120.27911
  20
125.83718
  0
VERTEX
  5
5ba
  8
Layer_3
  10
121.01286
  20
125.8417
  0
VERTEX
  5
5bb
  8
Layer_3
  10
121.79585
  20
125.84718
  0
VERTEX
  5
5bc
  8
Layer_3
  10
122.62954
  20
125.85359
  0
VERTEX
  5
5bd
  8
Layer_3
  10
123.5154
  20
125.86093
  0
VERTEX
  5
5be
  8
Layer_3
  10
124.45488
  20
125.86916
  0
VERTEX
  5
5bf
  8
Layer_3
  10
125.44947
  20
125.87828
  0
VERTEX
  5
5c0
  8
Layer_3
  10
126.50063
  20
125.88827
  0
VERTEX
  5
5c1
  8
Layer_3
  10
127.60982
  20
125.89911
  0
VERTEX
  5
5c2
  8
Layer_3
  10
130.55534
  20
125.92751
  0
VERTEX
  5
5c3
  8
Layer_3
  10
133.49743
  20
125.95453
  0
VERTEX
  5
5c4
  8
Layer_3
  10
134.94273
  20
125.96732
  0
VERTEX
  5
5c5
  8
Layer_3
  10
136.35782
  20
125.97954
  0
VERTEX
  5
5c6
  8
Layer_3
  10
137.73292
  20
125.99109
  0
VERTEX
  5
5c7
  8
Layer_3
  10
139.05824
  20
126.0019
  0
VERTEX
  5
5c8
  8
Layer_3
  10
140.32399
  20
126.0119
  0
VERTEX
  5
5c9
  8
Layer_3
  10
141.5204
  20
126.021
  0
VERTEX
  5
5ca
  8
Layer_3
  10
142.63767
  20
126.02912
  0
VERTEX
  5
5cb
  8
Layer_3
  10
143.66603
  20
126.0362
  0
VERTEX
  5
5cc
  8
Layer_3
  10
144.14381
  20
126.03931
  0
VERTEX
  5
5cd
  8
Layer_3
  10
144.59568
  20
126.04214
  0
VERTEX
  5
5ce
  8
Layer_3
  10
145.02044
  20
126.04466
  0
VERTEX
  5
5cf
  8
Layer_3
  10
145.41685
  20
126.04687
  0
VERTEX
  5
5d0
  8
Layer_3
  10
145.78369
  20
126.04875
  0
VERTEX
  5
5d1
  8
Layer_3
  10
146.11974
  20
126.05031
  0
VERTEX
  5
5d2
  8
Layer_3
  10
146.42378
  20
126.05152
  0
VERTEX
  5
5d3
  8
Layer_3
  10
146.69458
  20
126.05238
  0
VERTEX
  5
5d4
  8
Layer_3
  10
147.68324
  20
126.05739
  0
VERTEX
  5
5d5
  8
Layer_3
  10
148.60558
  20
126.06661
  0
VERTEX
  5
5d6
  8
Layer_3
  10
149.03556
  20
126.07264
  0
VERTEX
  5
5d7
  8
Layer_3
  10
149.4414
  20
126.07952
  0
VERTEX
  5
5d8
  8
Layer_3
  10
149.82055
  20
126.08718
  0
VERTEX
  5
5d9
  8
Layer_3
  10
150.17052
  20
126.09558
  0
VERTEX
  5
5da
  8
Layer_3
  10
150.48875
  20
126.10462
  0
VERTEX
  5
5db
  8
Layer_3
  10
150.77275
  20
126.11427
  0
VERTEX
  5
5dc
  8
Layer_3
  10
151.01997
  20
126.12443
  0
VERTEX
  5
5dd
  8
Layer_3
  10
151.22791
  20
126.13506
  0
VERTEX
  5
5de
  8
Layer_3
  10
151.39402
  20
126.14608
  0
VERTEX
  5
5df
  8
Layer_3
  10
151.5158
  20
126.15743
  0
VERTEX
  5
5e0
  8
Layer_3
  10
151.59072
  20
126.16904
  0
VERTEX
  5
5e1
  8
Layer_3
  10
151.61626
  20
126.18085
  0
VERTEX
  5
5e2
  8
Layer_3
  10
151.60541
  20
126.20257
  0
VERTEX
  5
5e3
  8
Layer_3
  10
151.57321
  20
126.25534
  0
VERTEX
  5
5e4
  8
Layer_3
  10
151.5202
  20
126.33837
  0
VERTEX
  5
5e5
  8
Layer_3
  10
151.4469
  20
126.45087
  0
VERTEX
  5
5e6
  8
Layer_3
  10
151.35385
  20
126.59207
  0
VERTEX
  5
5e7
  8
Layer_3
  10
151.24158
  20
126.76118
  0
VERTEX
  5
5e8
  8
Layer_3
  10
151.11062
  20
126.95742
  0
VERTEX
  5
5e9
  8
Layer_3
  10
150.96151
  20
127.18001
  0
VERTEX
  5
5ea
  8
Layer_3
  10
150.79477
  20
127.42816
  0
VERTEX
  5
5eb
  8
Layer_3
  10
150.61094
  20
127.70109
  0
VERTEX
  5
5ec
  8
Layer_3
  10
150.41055
  20
127.99803
  0
VERTEX
  5
5ed
  8
Layer_3
  10
150.19413
  20
128.31818
  0
VERTEX
  5
5ee
  8
Layer_3
  10
149.96221
  20
128.66076
  0
VERTEX
  5
5ef
  8
Layer_3
  10
149.71533
  20
129.02499
  0
VERTEX
  5
5f0
  8
Layer_3
  10
149.45401
  20
129.4101
  0
VERTEX
  5
5f1
  8
Layer_3
  10
149.17879
  20
129.81529
  0
VERTEX
  5
5f2
  8
Layer_3
  10
148.58877
  20
130.6828
  0
VERTEX
  5
5f3
  8
Layer_3
  10
147.94952
  20
131.62127
  0
VERTEX
  5
5f4
  8
Layer_3
  10
147.2653
  20
132.62444
  0
VERTEX
  5
5f5
  8
Layer_3
  10
146.54035
  20
133.68604
  0
VERTEX
  5
5f6
  8
Layer_3
  10
145.77895
  20
134.79981
  0
VERTEX
  5
5f7
  8
Layer_3
  10
144.98533
  20
135.9595
  0
VERTEX
  5
5f8
  8
Layer_3
  10
144.16376
  20
137.15885
  0
VERTEX
  5
5f9
  8
Layer_3
  10
143.31849
  20
138.39158
  0
VERTEX
  5
5fa
  8
Layer_3
  10
142.46821
  20
139.63109
  0
VERTEX
  5
5fb
  8
Layer_3
  10
141.63198
  20
140.85029
  0
VERTEX
  5
5fc
  8
Layer_3
  10
140.81452
  20
142.04226
  0
VERTEX
  5
5fd
  8
Layer_3
  10
140.0206
  20
143.20007
  0
VERTEX
  5
5fe
  8
Layer_3
  10
139.25495
  20
144.31679
  0
VERTEX
  5
5ff
  8
Layer_3
  10
138.52234
  20
145.38548
  0
VERTEX
  5
600
  8
Layer_3
  10
137.8275
  20
146.39923
  0
VERTEX
  5
601
  8
Layer_3
  10
137.17518
  20
147.3511
  0
VERTEX
  5
602
  8
Layer_3
  10
136.57013
  20
148.23416
  0
VERTEX
  5
603
  8
Layer_3
  10
136.01711
  20
149.04149
  0
VERTEX
  5
604
  8
Layer_3
  10
135.76158
  20
149.41458
  0
VERTEX
  5
605
  8
Layer_3
  10
135.52085
  20
149.76614
  0
VERTEX
  5
606
  8
Layer_3
  10
135.29549
  20
150.09531
  0
VERTEX
  5
607
  8
Layer_3
  10
135.08611
  20
150.40121
  0
VERTEX
  5
608
  8
Layer_3
  10
134.89329
  20
150.68297
  0
VERTEX
  5
609
  8
Layer_3
  10
134.71763
  20
150.93974
  0
VERTEX
  5
60a
  8
Layer_3
  10
134.55972
  20
151.17065
  0
VERTEX
  5
60b
  8
Layer_3
  10
134.42016
  20
151.37483
  0
VERTEX
  5
60c
  8
Layer_3
  10
134.29955
  20
151.55141
  0
VERTEX
  5
60d
  8
Layer_3
  10
134.19846
  20
151.69953
  0
VERTEX
  5
60e
  8
Layer_3
  10
134.1175
  20
151.81832
  0
VERTEX
  5
60f
  8
Layer_3
  10
134.05727
  20
151.90692
  0
VERTEX
  5
610
  8
Layer_3
  10
133.86157
  20
152.19216
  0
VERTEX
  5
611
  8
Layer_3
  10
133.67483
  20
152.45831
  0
VERTEX
  5
612
  8
Layer_3
  10
133.50142
  20
152.69954
  0
VERTEX
  5
613
  8
Layer_3
  10
133.34574
  20
152.91002
  0
VERTEX
  5
614
  8
Layer_3
  10
133.21217
  20
153.08393
  0
VERTEX
  5
615
  8
Layer_3
  10
133.10509
  20
153.21543
  0
VERTEX
  5
616
  8
Layer_3
  10
133.0289
  20
153.2987
  0
VERTEX
  5
617
  8
Layer_3
  10
132.98798
  20
153.32791
  0
VERTEX
  5
618
  8
Layer_3
  10
132.96905
  20
153.31626
  0
VERTEX
  5
619
  8
Layer_3
  10
132.93467
  20
153.28185
  0
VERTEX
  5
61a
  8
Layer_3
  10
132.88569
  20
153.22585
  0
VERTEX
  5
61b
  8
Layer_3
  10
132.82298
  20
153.14941
  0
VERTEX
  5
61c
  8
Layer_3
  10
132.65978
  20
152.93989
  0
VERTEX
  5
61d
  8
Layer_3
  10
132.45196
  20
152.66257
  0
VERTEX
  5
61e
  8
Layer_3
  10
132.20639
  20
152.32675
  0
VERTEX
  5
61f
  8
Layer_3
  10
131.92993
  20
151.94174
  0
VERTEX
  5
620
  8
Layer_3
  10
131.62947
  20
151.51683
  0
VERTEX
  5
621
  8
Layer_3
  10
131.31188
  20
151.06131
  0
SEQEND
  0
POLYLINE
  5
623
  8
Layer_1
  62
30
  66
1
  10
0
  20
0
  30
0
  0
VERTEX
  5
623
  8
Layer_1
  10
176.22839
  20
86.764931
  0
VERTEX
  5
624
  8
Layer_1
  10
129.22839
  20
86.764931
  0
VERTEX
  5
625
  8
Layer_1
  10
129.22839
  20
121.76493
  0
VERTEX
  5
626
  8
Layer_1
  10
176.22839
  20
121.76493
  0
VERTEX
  5
627
  8
Layer_1
  10
176.22839
  20
86.764931
  0
SEQEND
  0
POLYLINE
  5
629
  8
Layer_3
  62
1
  66
1
  10
0
  20
0
  30
0
  0
VERTEX
  5
629
  8
Layer_3
  10
152.159
  20
54.063904
  0
VERTEX
  5
62a
  8
Layer_3
  10
133.89133
  20
85.901413
  0
VERTEX
  5
62b
  8
Layer_3
  10
128.24399
  20
85.884659
  0
VERTEX
  5
62c
  8
Layer_3
  10
128.30122
  20
96.090561
  0
VERTEX
  5
62d
  8
Layer_3
  10
128.30122
  20
96.090561
  0
VERTEX
  5
62e
  8
Layer_3
  10
128.30122
  20
96.090561
  0
VERTEX
  5
62f
  8
Layer_3
  10
112.51952
  20
125.15878
  0
VERTEX
  5
630
  8
Layer_3
  10
75.751457
  20
124.97264
  0
VERTEX
  5
631
  8
Layer_3
  10
152.159
  20
54.063904
  0
SEQEND
  0
POLYLINE
  5
633
  8
Layer_3
  62
1
  66
1
  10
0
  20
0
  30
0
  0
VERTEX
  5
633
  8
Layer_3
  10
134.5495
  20
85.904549
  0
VERTEX
  5
634
  8
Layer_3
  10
152.15851
  20
85.883896
  0
VERTEX
  5
635
  8
Layer_3
  10
152.23013
  20
55.297226
  0
VERTEX
  5
636
  8
Layer_3
  10
134.5495
  20
85.904549
  0
SEQEND
  0
POLYLINE
  5
638
  8
Layer_3
  62
1
  66
1
  10
0
  20
0
  30
0
  0
VERTEX
  5
638
  8
Layer_3
  10
152.81815
  20
55.30217
  0
VERTEX
  5
639
  8
Layer_3
  10
152.81152
  20
79.735046
  0
VERTEX
  5
63a
  8
Layer_3
  10
152.77362
  20
85.89312
  0
VERTEX
  5
63b
  8
Layer_3
  10
170.42886
  20
85.85627
  0
VERTEX
  5
63c
  8
Layer_3
  10
152.81815
  20
55.30217
  0
SEQEND
  0
POLYLINE
  5
63e
  8
Layer_3
  62
1
  66
1
  10
0
  20
0
  30
0
  0
VERTEX
  5
63e
  8
Layer_3
  10
152.88135
  20
54.080795
  0
VERTEX
  5
63f
  8
Layer_3
  10
171.0631
  20
85.845306
  0
VERTEX
  5
640
  8
Layer_3
  10
177.20349
  20
85.835762
  0
VERTEX
  5
641
  8
Layer_3
  10
177.14691
  20
95.924446
  0
VERTEX
  5
642
  8
Layer_3
  10
177.14691
  20
95.924449
  0
VERTEX
  5
643
  8
Layer_3
  10
177.14691
  20
95.924449
  0
VERTEX
  5
644
  8
Layer_3
  10
191.90356
  20
126.04437
  0
VERTEX
  5
645
  8
Layer_3
  10
230.35114
  20
126.43071
  0
VERTEX
  5
646
  8
Layer_3
  10
152.88135
  20
54.080795
  0
SEQEND
  0
POLYLINE
  5
648
  8
Layer_3
  62
1
  66
1
  10
0
  20
0
  30
0
  0
VERTEX
  5
648
  8
Layer_3
  10
152.13248
  20
125.42068
  0
VERTEX
  5
649
  8
Layer_3
  10
152.1127
  20
122.61162
  0
VERTEX
  5
64a
  8
Layer_3
  10
128.29239
  20
122.61629
  0
VERTEX
  5
64b
  8
Layer_3
  10
128.29926
  20
97.420479
  0
VERTEX
  5
64c
  8
Layer_3
  10
113.26215
  20
125.27701
  0
VERTEX
  5
64d
  8
Layer_3
  10
152.13248
  20
125.42068
  0
SEQEND
  0
POLYLINE
  5
64f
  8
Layer_3
  62
1
  66
1
  10
0
  20
0
  30
0
  0
VERTEX
  5
64f
  8
Layer_3
  10
152.80194
  20
125.44497
  0
VERTEX
  5
650
  8
Layer_3
  10
152.78296
  20
122.61811
  0
VERTEX
  5
651
  8
Layer_3
  10
177.1362
  20
122.63609
  0
VERTEX
  5
652
  8
Layer_3
  10
177.20097
  20
97.448723
  0
VERTEX
  5
653
  8
Layer_3
  10
191.17223
  20
126.07034
  0
VERTEX
  5
654
  8
Layer_3
  10
152.80194
  20
125.44497
  0
SEQEND
  0
POLYLINE
  5
656
  8
Layer_3
  62
1
  66
1
  10
0
  20
0
  30
0
  0
VERTEX
  5
656
  8
Layer_3
  10
176.22827
  20
121.76492
  0
VERTEX
  5
657
  8
Layer_3
  10
129.22827
  20
121.76492
  0
VERTEX
  5
658
  8
Layer_3
  10
129.22827
  20
86.764862
  0
VERTEX
  5
659
  8
Layer_3
  10
176.22827
  20
86.764862
  0
VERTEX
  5
65a
  8
Layer_3
  10
176.22827
  20
121.76492
  0
SEQEND
  0
POLYLINE
  5
65c
  8
Layer_0
  62
140
  66
1
  10
0
  20
0
  30
0
  0
VERTEX
  5
65c
  8
Layer_0
  10
193.00757
  20
46.231445
  42
-0.032314001
  0
VERTEX
  5
65d
  8
Layer_0
  10
184.20166
  20
49.441895
  42
-0.054798198
  0
VERTEX
  5
65e
  8
Layer_0
  10
179.30957
  20
52.235596
  42
-0.089386001
  0
VERTEX
  5
65f
  8
Layer_0
  10
176.70508
  20
54.933105
  42
-0.19261756
  0
VERTEX
  5
660
  8
Layer_0
  10
175.77271
  20
59.770508
  42
-0.071590358
  0
VERTEX
  5
661
  8
Layer_0
  10
176.95898
  20
63.246826
  42
-0.04184939
  0
VERTEX
  5
662
  8
Layer_0
  10
179.90771
  20
68.01416
  42
-0.018449336
  0
VERTEX
  5
663
  8
Layer_0
  10
185.96777
  20
75.612549
  42
-0.0013035387
  0
VERTEX
  5
664
  8
Layer_0
  10
190.72388
  20
81.21582
  0
VERTEX
  5
665
  8
Layer_0
  10
191.74634
  20
82.424561
  42
0.018888108
  0
VERTEX
  5
666
  8
Layer_0
  10
205.26172
  20
99.520996
  42
0.0047453097
  0
VERTEX
  5
667
  8
Layer_0
  10
207.64478
  20
102.87793
  42
0.0010269248
  0
VERTEX
  5
668
  8
Layer_0
  10
211.30908
  20
106.31494
  0
VERTEX
  5
669
  8
Layer_0
  10
212.18604
  20
107.13135
  42
-0.0012844116
  0
VERTEX
  5
66a
  8
Layer_0
  10
213.21143
  20
108.06494
  0
VERTEX
  5
66b
  8
Layer_0
  10
213.70166
  20
108.51855
  42
0.0030508269
  0
VERTEX
  5
66c
  8
Layer_0
  10
216.3916
  20
111.06348
  0
VERTEX
  5
66d
  8
Layer_0
  10
218.00391
  20
112.58594
  42
-0.0010153684
  0
VERTEX
  5
66e
  8
Layer_0
  10
231.0127
  20
124.77295
  0
VERTEX
  5
66f
  8
Layer_0
  10
231.24658
  20
125.01221
  42
0.090971914
  0
VERTEX
  5
670
  8
Layer_0
  10
232.11621
  20
126.21094
  42
0.23360173
  0
VERTEX
  5
671
  8
Layer_0
  10
231.98779
  20
127.42676
  42
0.034597061
  0
VERTEX
  5
672
  8
Layer_0
  10
230.48535
  20
129.80811
  0
VERTEX
  5
673
  8
Layer_0
  10
229.59277
  20
131.07861
  0
VERTEX
  5
674
  8
Layer_0
  10
227.83594
  20
133.59082
  0
VERTEX
  5
675
  8
Layer_0
  10
222.2793
  20
141.55859
  0
VERTEX
  5
676
  8
Layer_0
  10
215.59033
  20
151.15479
  42
0.0015185209
  0
VERTEX
  5
677
  8
Layer_0
  10
212.64893
  20
155.36328
  42
0.19558339
  0
VERTEX
  5
678
  8
Layer_0
  10
211.81738
  20
155.83984
  42
0.012890729
  0
VERTEX
  5
679
  8
Layer_0
  10
209.78369
  20
156.16211
  42
0.078245561
  0
VERTEX
  5
67a
  8
Layer_0
  10
209.2041
  20
156.14453
  0
VERTEX
  5
67b
  8
Layer_0
  10
208.93359
  20
156.13379
  42
-0.0024931361
  0
VERTEX
  5
67c
  8
Layer_0
  10
187.35693
  20
155.8291
  0
VERTEX
  5
67d
  8
Layer_0
  10
183.01611
  20
155.76807
  42
0.0075374831
  0
VERTEX
  5
67e
  8
Layer_0
  10
173.16406
  20
155.54639
  42
0.137006
  0
VERTEX
  5
67f
  8
Layer_0
  10
171.5459
  20
155.14941
  42
0.14914058
  0
VERTEX
  5
680
  8
Layer_0
  10
171.00293
  20
154.56055
  0
VERTEX
  5
681
  8
Layer_0
  10
170.85742
  20
154.33691
  42
-0.0041454679
  0
VERTEX
  5
682
  8
Layer_0
  10
161.30322
  20
140.63184
  0
VERTEX
  5
683
  8
Layer_0
  10
152.4209
  20
128.02295
  0
VERTEX
  5
684
  8
Layer_0
  10
146.62646
  20
136.46387
  0
VERTEX
  5
685
  8
Layer_0
  10
139.11084
  20
147.42871
  42
0.0081597766
  0
VERTEX
  5
686
  8
Layer_0
  10
134.00977
  20
154.72559
  42
0.27322471
  0
VERTEX
  5
687
  8
Layer_0
  10
132.90527
  20
155.26367
  42
0.0064447176
  0
VERTEX
  5
688
  8
Layer_0
  10
125.00537
  20
155.34668
  42
0.0012424356
  0
VERTEX
  5
689
  8
Layer_0
  10
115.2041
  20
155.35205
  0
VERTEX
  5
68a
  8
Layer_0
  10
93.516602
  20
155.29736
  42
0.25230797
  0
VERTEX
  5
68b
  8
Layer_0
  10
92.681152
  20
154.84326
  0
VERTEX
  5
68c
  8
Layer_0
  10
89.052246
  20
149.27197
  0
VERTEX
  5
68d
  8
Layer_0
  10
87.528809
  20
146.92871
  0
VERTEX
  5
68e
  8
Layer_0
  10
84.91748
  20
142.9043
  0
VERTEX
  5
68f
  8
Layer_0
  10
79.314453
  20
134.25342
  42
-0.00066220822
  0
VERTEX
  5
690
  8
Layer_0
  10
75.163574
  20
127.87158
  0
VERTEX
  5
691
  8
Layer_0
  10
74.868164
  20
127.40283
  42
0.040038897
  0
VERTEX
  5
692
  8
Layer_0
  10
73.898438
  20
125.66992
  42
0.28786721
  0
VERTEX
  5
693
  8
Layer_0
  10
74.086914
  20
124.37549
  42
0.05766136
  0
VERTEX
  5
694
  8
Layer_0
  10
75.361816
  20
123.08398
  0
VERTEX
  5
695
  8
Layer_0
  10
75.70166
  20
122.78174
  42
-0.002976961
  0
VERTEX
  5
696
  8
Layer_0
  10
89.396484
  20
110.09717
  0
VERTEX
  5
697
  8
Layer_0
  10
93.749023
  20
106.03955
  0
VERTEX
  5
698
  8
Layer_0
  10
97.372803
  20
102.65698
  0
VERTEX
  5
699
  8
Layer_0
  10
98.401611
  20
101.19312
  42
0.020696491
  0
VERTEX
  5
69a
  8
Layer_0
  10
112.08154
  20
83.674561
  42
0.0015183884
  0
VERTEX
  5
69b
  8
Layer_0
  10
118.92358
  20
75.621338
  0
VERTEX
  5
69c
  8
Layer_0
  10
119.79761
  20
74.583984
  42
-0.021931783
  0
VERTEX
  5
69d
  8
Layer_0
  10
125.61182
  20
67.175781
  42
-0.042697592
  0
VERTEX
  5
69e
  8
Layer_0
  10
128.15869
  20
62.885742
  42
-0.086247568
  0
VERTEX
  5
69f
  8
Layer_0
  10
129.27441
  20
59.125488
  42
-0.20668368
  0
VERTEX
  5
6a0
  8
Layer_0
  10
127.67896
  20
54.104492
  42
-0.07675869
  0
VERTEX
  5
6a1
  8
Layer_0
  10
124.57861
  20
51.460693
  42
-0.048503675
  0
VERTEX
  5
6a2
  8
Layer_0
  10
118.46509
  20
48.451172
  42
-0.019769669
  0
VERTEX
  5
6a3
  8
Layer_0
  10
112.00757
  20
46.231445
  0
VERTEX
  5
6a4
  8
Layer_0
  10
112.00757
  20
30.231445
  0
VERTEX
  5
6a5
  8
Layer_0
  10
193.00757
  20
30.231445
  0
VERTEX
  5
6a6
  8
Layer_0
  10
193.00757
  20
46.231445
  0
SEQEND
  0
ENDSEC
  0
EOF
