  0
SECTION
  2
HEADER
  9
$ACADVER
  1
AC1009
  0
ENDSEC
  0
SECTION
  2
ENTITIES
  0
POLYLINE
  5
90
  8
Layer_0
  62
0
  66
1
  10
0
  20
0
  30
0
  0
VERTEX
  5
90
  8
Layer_0
  10
190.53442
  20
56.684082
  0
VERTEX
  5
91
  8
Layer_0
  10
229.09229
  20
130.95508
  0
VERTEX
  5
92
  8
Layer_0
  10
229.18408
  20
131.05322
  42
0.094936254
  0
VERTEX
  5
93
  8
Layer_0
  10
230.26025
  20
132.62744
  42
0.21040185
  0
VERTEX
  5
94
  8
Layer_0
  10
230.1543
  20
134.56152
  42
0.022289458
  0
VERTEX
  5
95
  8
Layer_0
  10
229.82227
  20
135.20313
  42
0.012681464
  0
VERTEX
  5
96
  8
Layer_0
  10
229.07373
  20
136.40771
  0
VERTEX
  5
97
  8
Layer_0
  10
210.59863
  20
162.89941
  42
0.16485945
  0
VERTEX
  5
98
  8
Layer_0
  10
209.56348
  20
163.66162
  42
0.027635716
  0
VERTEX
  5
99
  8
Layer_0
  10
208.98633
  20
163.83105
  42
0.085682549
  0
VERTEX
  5
9a
  8
Layer_0
  10
207.95703
  20
163.99902
  42
0.016270658
  0
VERTEX
  5
9b
  8
Layer_0
  10
206.91113
  20
164.15283
  42
0.061548098
  0
VERTEX
  5
9c
  8
Layer_0
  10
206.08105
  20
164.14111
  0
VERTEX
  5
9d
  8
Layer_0
  10
205.55762
  20
164.12109
  0
VERTEX
  5
9e
  8
Layer_0
  10
176.47607
  20
163.70703
  0
VERTEX
  5
9f
  8
Layer_0
  10
170.92334
  20
163.57715
  42
0.015477146
  0
VERTEX
  5
a0
  8
Layer_0
  10
169.47119
  20
163.49316
  42
0.14535821
  0
VERTEX
  5
a1
  8
Layer_0
  10
167.52686
  20
162.68359
  42
0.088442714
  0
VERTEX
  5
a2
  8
Layer_0
  10
166.94727
  20
161.92969
  0
VERTEX
  5
a3
  8
Layer_0
  10
162.74512
  20
155.84473
  0
VERTEX
  5
a4
  8
Layer_0
  10
149.43506
  20
136.92383
  0
VERTEX
  5
a5
  8
Layer_0
  10
135.50781
  20
157.21924
  0
VERTEX
  5
a6
  8
Layer_0
  10
132.4375
  20
161.60693
  0
VERTEX
  5
a7
  8
Layer_0
  10
132.35938
  20
161.7124
  0
VERTEX
  5
a8
  8
Layer_0
  10
132.30322
  20
161.81689
  42
0.11554428
  0
VERTEX
  5
a9
  8
Layer_0
  10
131.16504
  20
162.98486
  42
0.14102216
  0
VERTEX
  5
aa
  8
Layer_0
  10
129.27148
  20
163.27148
  0
VERTEX
  5
ab
  8
Layer_0
  10
128.53564
  20
163.29395
  0
VERTEX
  5
ac
  8
Layer_0
  10
117.87402
  20
163.35107
  0
VERTEX
  5
ad
  8
Layer_0
  10
91.542969
  20
163.2959
  0
VERTEX
  5
ae
  8
Layer_0
  10
91.48584
  20
163.30811
  42
0.091797044
  0
VERTEX
  5
af
  8
Layer_0
  10
90.15918
  20
163.27734
  42
0.20534889
  0
VERTEX
  5
b0
  8
Layer_0
  10
88.765137
  20
162.44189
  42
0.0968331
  0
VERTEX
  5
b1
  8
Layer_0
  10
88.137207
  20
161.46484
  0
VERTEX
  5
b2
  8
Layer_0
  10
85.574707
  20
157.53174
  0
VERTEX
  5
b3
  8
Layer_0
  10
74.618652
  20
140.62988
  0
VERTEX
  5
b4
  8
Layer_0
  10
71.166504
  20
135.3335
  42
0.013263633
  0
VERTEX
  5
b5
  8
Layer_0
  10
70.29834
  20
133.90967
  42
0.016810509
  0
VERTEX
  5
b6
  8
Layer_0
  10
69.854492
  20
133.07227
  42
0.12006102
  0
VERTEX
  5
b7
  8
Layer_0
  10
69.583984
  20
131.86426
  42
0.15307988
  0
VERTEX
  5
b8
  8
Layer_0
  10
70.189453
  20
130.37549
  42
0.039093571
  0
VERTEX
  5
b9
  8
Layer_0
  10
70.379028
  20
130.14148
  0
VERTEX
  5
ba
  8
Layer_0
  10
108.53442
  20
56.684082
  0
VERTEX
  5
bb
  8
Layer_0
  10
108.53442
  20
42.684082
  0
VERTEX
  5
bc
  8
Layer_0
  10
190.53442
  20
42.684082
  0
VERTEX
  5
bd
  8
Layer_0
  10
190.53442
  20
56.684082
  0
SEQEND
  0
POLYLINE
  5
bf
  8
Layer_0
  62
0
  66
1
  10
0
  20
0
  30
0
  0
VERTEX
  5
bf
  8
Layer_0
  10
173.13123
  20
128.36078
  0
VERTEX
  5
c0
  8
Layer_0
  10
126.33118
  20
128.36078
  0
VERTEX
  5
c1
  8
Layer_0
  10
126.33118
  20
93.760773
  0
VERTEX
  5
c2
  8
Layer_0
  10
173.13123
  20
93.760773
  0
VERTEX
  5
c3
  8
Layer_0
  10
173.13123
  20
128.36078
  0
SEQEND
  0
POLYLINE
  5
c5
  8
Layer_0
  62
0
  66
1
  10
0
  20
0
  30
0
  0
VERTEX
  5
c5
  8
Layer_0
  10
207.79871
  20
160.02051
  0
VERTEX
  5
c6
  8
Layer_0
  10
207.61133
  20
160.0791
  0
VERTEX
  5
c7
  8
Layer_0
  10
207.44153
  20
160.1709
  0
VERTEX
  5
c8
  8
Layer_0
  10
207.29297
  20
160.29297
  0
VERTEX
  5
c9
  8
Layer_0
  10
207.1709
  20
160.44141
  0
VERTEX
  5
ca
  8
Layer_0
  10
207.07922
  20
160.61145
  0
VERTEX
  5
cb
  8
Layer_0
  10
207.02063
  20
160.79883
  0
VERTEX
  5
cc
  8
Layer_0
  10
207
  20
161
  0
VERTEX
  5
cd
  8
Layer_0
  10
207.02063
  20
161.20215
  0
VERTEX
  5
ce
  8
Layer_0
  10
207.07922
  20
161.38965
  0
VERTEX
  5
cf
  8
Layer_0
  10
207.1709
  20
161.55957
  0
VERTEX
  5
d0
  8
Layer_0
  10
207.29297
  20
161.70703
  0
VERTEX
  5
d1
  8
Layer_0
  10
207.44153
  20
161.82898
  0
VERTEX
  5
d2
  8
Layer_0
  10
207.61133
  20
161.92175
  0
VERTEX
  5
d3
  8
Layer_0
  10
207.79871
  20
161.98047
  0
VERTEX
  5
d4
  8
Layer_0
  10
208
  20
162
  0
VERTEX
  5
d5
  8
Layer_0
  10
208.20215
  20
161.98047
  0
VERTEX
  5
d6
  8
Layer_0
  10
208.38953
  20
161.92175
  0
VERTEX
  5
d7
  8
Layer_0
  10
208.55957
  20
161.82898
  0
VERTEX
  5
d8
  8
Layer_0
  10
208.70703
  20
161.70703
  0
VERTEX
  5
d9
  8
Layer_0
  10
208.8291
  20
161.55957
  0
VERTEX
  5
da
  8
Layer_0
  10
208.92188
  20
161.38965
  0
VERTEX
  5
db
  8
Layer_0
  10
208.98035
  20
161.20215
  0
VERTEX
  5
dc
  8
Layer_0
  10
209
  20
161
  0
VERTEX
  5
dd
  8
Layer_0
  10
208.98035
  20
160.79883
  0
VERTEX
  5
de
  8
Layer_0
  10
208.92188
  20
160.61145
  0
VERTEX
  5
df
  8
Layer_0
  10
208.8291
  20
160.44141
  0
VERTEX
  5
e0
  8
Layer_0
  10
208.70703
  20
160.29297
  0
VERTEX
  5
e1
  8
Layer_0
  10
208.55957
  20
160.1709
  0
VERTEX
  5
e2
  8
Layer_0
  10
208.38953
  20
160.0791
  0
VERTEX
  5
e3
  8
Layer_0
  10
208.20215
  20
160.02051
  0
VERTEX
  5
e4
  8
Layer_0
  10
208
  20
160
  0
VERTEX
  5
e5
  8
Layer_0
  10
207.79871
  20
160.02051
  0
SEQEND
  0
POLYLINE
  5
e7
  8
Layer_0
  62
0
  66
1
  10
0
  20
0
  30
0
  0
VERTEX
  5
e7
  8
Layer_0
  10
169.40686
  20
159.45911
  0
VERTEX
  5
e8
  8
Layer_0
  10
169.21838
  20
159.5177
  0
VERTEX
  5
e9
  8
Layer_0
  10
169.04956
  20
159.60962
  0
VERTEX
  5
ea
  8
Layer_0
  10
168.90112
  20
159.73169
  0
VERTEX
  5
eb
  8
Layer_0
  10
168.77905
  20
159.88013
  0
VERTEX
  5
ec
  8
Layer_0
  10
168.68726
  20
160.04993
  0
VERTEX
  5
ed
  8
Layer_0
  10
168.62866
  20
160.23743
  0
VERTEX
  5
ee
  8
Layer_0
  10
168.60803
  20
160.43958
  0
VERTEX
  5
ef
  8
Layer_0
  10
168.62866
  20
160.64087
  0
VERTEX
  5
f0
  8
Layer_0
  10
168.68726
  20
160.82837
  0
VERTEX
  5
f1
  8
Layer_0
  10
168.77905
  20
160.99829
  0
VERTEX
  5
f2
  8
Layer_0
  10
168.90112
  20
161.14661
  0
VERTEX
  5
f3
  8
Layer_0
  10
169.04956
  20
161.26868
  0
VERTEX
  5
f4
  8
Layer_0
  10
169.21838
  20
161.3606
  0
VERTEX
  5
f5
  8
Layer_0
  10
169.40686
  20
161.41919
  0
VERTEX
  5
f6
  8
Layer_0
  10
169.60815
  20
161.4397
  0
VERTEX
  5
f7
  8
Layer_0
  10
169.8092
  20
161.41919
  0
VERTEX
  5
f8
  8
Layer_0
  10
169.99768
  20
161.3606
  0
VERTEX
  5
f9
  8
Layer_0
  10
170.1676
  20
161.26868
  0
VERTEX
  5
fa
  8
Layer_0
  10
170.31506
  20
161.14661
  0
VERTEX
  5
fb
  8
Layer_0
  10
170.43726
  20
160.99829
  0
VERTEX
  5
fc
  8
Layer_0
  10
170.53003
  20
160.82837
  0
VERTEX
  5
fd
  8
Layer_0
  10
170.58765
  20
160.64087
  0
VERTEX
  5
fe
  8
Layer_0
  10
170.60803
  20
160.43958
  0
VERTEX
  5
ff
  8
Layer_0
  10
170.58765
  20
160.23743
  0
VERTEX
  5
100
  8
Layer_0
  10
170.53003
  20
160.04993
  0
VERTEX
  5
101
  8
Layer_0
  10
170.43726
  20
159.88013
  0
VERTEX
  5
102
  8
Layer_0
  10
170.31506
  20
159.73169
  0
VERTEX
  5
103
  8
Layer_0
  10
170.1676
  20
159.60962
  0
VERTEX
  5
104
  8
Layer_0
  10
169.99768
  20
159.5177
  0
VERTEX
  5
105
  8
Layer_0
  10
169.8092
  20
159.45911
  0
VERTEX
  5
106
  8
Layer_0
  10
169.60815
  20
159.43958
  0
VERTEX
  5
107
  8
Layer_0
  10
169.40686
  20
159.45911
  0
SEQEND
  0
POLYLINE
  5
109
  8
Layer_0
  62
0
  66
1
  10
0
  20
0
  30
0
  0
VERTEX
  5
109
  8
Layer_0
  10
90.723938
  20
159.38025
  0
VERTEX
  5
10a
  8
Layer_0
  10
90.53656
  20
159.43872
  0
VERTEX
  5
10b
  8
Layer_0
  10
90.366516
  20
159.53162
  0
VERTEX
  5
10c
  8
Layer_0
  10
90.218323
  20
159.65369
  0
VERTEX
  5
10d
  8
Layer_0
  10
90.096252
  20
159.80103
  0
VERTEX
  5
10e
  8
Layer_0
  10
90.004333
  20
159.97095
  0
VERTEX
  5
10f
  8
Layer_0
  10
89.945862
  20
160.15845
  0
VERTEX
  5
110
  8
Layer_0
  10
89.925354
  20
160.3606
  0
VERTEX
  5
111
  8
Layer_0
  10
89.945862
  20
160.56177
  0
VERTEX
  5
112
  8
Layer_0
  10
90.004333
  20
160.74927
  0
VERTEX
  5
113
  8
Layer_0
  10
90.096252
  20
160.91919
  0
VERTEX
  5
114
  8
Layer_0
  10
90.218323
  20
161.0675
  0
VERTEX
  5
115
  8
Layer_0
  10
90.366516
  20
161.18958
  0
VERTEX
  5
116
  8
Layer_0
  10
90.53656
  20
161.28137
  0
VERTEX
  5
117
  8
Layer_0
  10
90.723938
  20
161.34009
  0
VERTEX
  5
118
  8
Layer_0
  10
90.925232
  20
161.3606
  0
VERTEX
  5
119
  8
Layer_0
  10
91.12738
  20
161.34009
  0
VERTEX
  5
11a
  8
Layer_0
  10
91.314758
  20
161.28137
  0
VERTEX
  5
11b
  8
Layer_0
  10
91.48468
  20
161.18958
  0
VERTEX
  5
11c
  8
Layer_0
  10
91.632141
  20
161.0675
  0
VERTEX
  5
11d
  8
Layer_0
  10
91.754333
  20
160.91919
  0
VERTEX
  5
11e
  8
Layer_0
  10
91.847107
  20
160.74927
  0
VERTEX
  5
11f
  8
Layer_0
  10
91.905579
  20
160.56177
  0
VERTEX
  5
120
  8
Layer_0
  10
91.92511
  20
160.3606
  0
VERTEX
  5
121
  8
Layer_0
  10
91.905579
  20
160.15845
  0
VERTEX
  5
122
  8
Layer_0
  10
91.847107
  20
159.97095
  0
VERTEX
  5
123
  8
Layer_0
  10
91.754333
  20
159.80103
  0
VERTEX
  5
124
  8
Layer_0
  10
91.632141
  20
159.65369
  0
VERTEX
  5
125
  8
Layer_0
  10
91.48468
  20
159.53162
  0
VERTEX
  5
126
  8
Layer_0
  10
91.314758
  20
159.43872
  0
VERTEX
  5
127
  8
Layer_0
  10
91.12738
  20
159.38025
  0
VERTEX
  5
128
  8
Layer_0
  10
90.925232
  20
159.3606
  0
VERTEX
  5
129
  8
Layer_0
  10
90.723938
  20
159.38025
  0
SEQEND
  0
POLYLINE
  5
12b
  8
Layer_0
  62
0
  66
1
  10
0
  20
0
  30
0
  0
VERTEX
  5
12b
  8
Layer_0
  10
129.51331
  20
159.32788
  0
VERTEX
  5
12c
  8
Layer_0
  10
129.32471
  20
159.3855
  0
VERTEX
  5
12d
  8
Layer_0
  10
129.15479
  20
159.47839
  0
VERTEX
  5
12e
  8
Layer_0
  10
129.00732
  20
159.60046
  0
VERTEX
  5
12f
  8
Layer_0
  10
128.88538
  20
159.74792
  0
VERTEX
  5
130
  8
Layer_0
  10
128.7926
  20
159.91785
  0
VERTEX
  5
131
  8
Layer_0
  10
128.73499
  20
160.10535
  0
VERTEX
  5
132
  8
Layer_0
  10
128.71448
  20
160.3075
  0
VERTEX
  5
133
  8
Layer_0
  10
128.73499
  20
160.50867
  0
VERTEX
  5
134
  8
Layer_0
  10
128.7926
  20
160.69617
  0
VERTEX
  5
135
  8
Layer_0
  10
128.88538
  20
160.86609
  0
VERTEX
  5
136
  8
Layer_0
  10
129.00732
  20
161.01453
  0
VERTEX
  5
137
  8
Layer_0
  10
129.15479
  20
161.13647
  0
VERTEX
  5
138
  8
Layer_0
  10
129.32471
  20
161.22827
  0
VERTEX
  5
139
  8
Layer_0
  10
129.51331
  20
161.28687
  0
VERTEX
  5
13a
  8
Layer_0
  10
129.71448
  20
161.3075
  0
VERTEX
  5
13b
  8
Layer_0
  10
129.91553
  20
161.28687
  0
VERTEX
  5
13c
  8
Layer_0
  10
130.104
  20
161.22827
  0
VERTEX
  5
13d
  8
Layer_0
  10
130.27307
  20
161.13647
  0
VERTEX
  5
13e
  8
Layer_0
  10
130.42151
  20
161.01453
  0
VERTEX
  5
13f
  8
Layer_0
  10
130.54358
  20
160.86609
  0
VERTEX
  5
140
  8
Layer_0
  10
130.63538
  20
160.69617
  0
VERTEX
  5
141
  8
Layer_0
  10
130.69397
  20
160.50867
  0
VERTEX
  5
142
  8
Layer_0
  10
130.71448
  20
160.3075
  0
VERTEX
  5
143
  8
Layer_0
  10
130.69397
  20
160.10535
  0
VERTEX
  5
144
  8
Layer_0
  10
130.63538
  20
159.91785
  0
VERTEX
  5
145
  8
Layer_0
  10
130.54358
  20
159.74792
  0
VERTEX
  5
146
  8
Layer_0
  10
130.42151
  20
159.60046
  0
VERTEX
  5
147
  8
Layer_0
  10
130.27307
  20
159.47839
  0
VERTEX
  5
148
  8
Layer_0
  10
130.104
  20
159.3855
  0
VERTEX
  5
149
  8
Layer_0
  10
129.91553
  20
159.32788
  0
VERTEX
  5
14a
  8
Layer_0
  10
129.71448
  20
159.3075
  0
VERTEX
  5
14b
  8
Layer_0
  10
129.51331
  20
159.32788
  0
SEQEND
  0
POLYLINE
  5
14d
  8
Layer_0
  62
0
  66
1
  10
0
  20
0
  30
0
  0
VERTEX
  5
14d
  8
Layer_0
  10
188.20435
  20
132.36292
  0
VERTEX
  5
14e
  8
Layer_0
  10
188.01575
  20
132.42151
  0
VERTEX
  5
14f
  8
Layer_0
  10
187.84595
  20
132.51331
  0
VERTEX
  5
150
  8
Layer_0
  10
187.69836
  20
132.63538
  0
VERTEX
  5
151
  8
Layer_0
  10
187.57629
  20
132.78381
  0
VERTEX
  5
152
  8
Layer_0
  10
187.48364
  20
132.95374
  0
VERTEX
  5
153
  8
Layer_0
  10
187.42603
  20
133.14124
  0
VERTEX
  5
154
  8
Layer_0
  10
187.40552
  20
133.34253
  0
VERTEX
  5
155
  8
Layer_0
  10
187.42603
  20
133.54468
  0
VERTEX
  5
156
  8
Layer_0
  10
187.48364
  20
133.73218
  0
VERTEX
  5
157
  8
Layer_0
  10
187.57629
  20
133.9021
  0
VERTEX
  5
158
  8
Layer_0
  10
187.69836
  20
134.04956
  0
VERTEX
  5
159
  8
Layer_0
  10
187.84595
  20
134.17151
  0
VERTEX
  5
15a
  8
Layer_0
  10
188.01575
  20
134.2644
  0
VERTEX
  5
15b
  8
Layer_0
  10
188.20435
  20
134.3219
  0
VERTEX
  5
15c
  8
Layer_0
  10
188.40552
  20
134.34241
  0
VERTEX
  5
15d
  8
Layer_0
  10
188.60657
  20
134.3219
  0
VERTEX
  5
15e
  8
Layer_0
  10
188.79517
  20
134.2644
  0
VERTEX
  5
15f
  8
Layer_0
  10
188.96509
  20
134.17151
  0
VERTEX
  5
160
  8
Layer_0
  10
189.11267
  20
134.04956
  0
VERTEX
  5
161
  8
Layer_0
  10
189.23462
  20
133.9021
  0
VERTEX
  5
162
  8
Layer_0
  10
189.32739
  20
133.73218
  0
VERTEX
  5
163
  8
Layer_0
  10
189.38513
  20
133.54468
  0
VERTEX
  5
164
  8
Layer_0
  10
189.40552
  20
133.34253
  0
VERTEX
  5
165
  8
Layer_0
  10
189.38513
  20
133.14124
  0
VERTEX
  5
166
  8
Layer_0
  10
189.32739
  20
132.95374
  0
VERTEX
  5
167
  8
Layer_0
  10
189.23462
  20
132.78381
  0
VERTEX
  5
168
  8
Layer_0
  10
189.11267
  20
132.63538
  0
VERTEX
  5
169
  8
Layer_0
  10
188.96509
  20
132.51331
  0
VERTEX
  5
16a
  8
Layer_0
  10
188.79517
  20
132.42151
  0
VERTEX
  5
16b
  8
Layer_0
  10
188.60657
  20
132.36292
  0
VERTEX
  5
16c
  8
Layer_0
  10
188.40552
  20
132.34241
  0
VERTEX
  5
16d
  8
Layer_0
  10
188.20435
  20
132.36292
  0
SEQEND
  0
POLYLINE
  5
16f
  8
Layer_0
  62
0
  66
1
  10
0
  20
0
  30
0
  0
VERTEX
  5
16f
  8
Layer_0
  10
149.19763
  20
131.77051
  0
VERTEX
  5
170
  8
Layer_0
  10
149.01001
  20
131.8291
  0
VERTEX
  5
171
  8
Layer_0
  10
148.84021
  20
131.92175
  0
VERTEX
  5
172
  8
Layer_0
  10
148.69177
  20
132.04382
  0
VERTEX
  5
173
  8
Layer_0
  10
148.5697
  20
132.19128
  0
VERTEX
  5
174
  8
Layer_0
  10
148.47791
  20
132.36133
  0
VERTEX
  5
175
  8
Layer_0
  10
148.41919
  20
132.54871
  0
VERTEX
  5
176
  8
Layer_0
  10
148.3988
  20
132.75085
  0
VERTEX
  5
177
  8
Layer_0
  10
148.41919
  20
132.95215
  0
VERTEX
  5
178
  8
Layer_0
  10
148.47791
  20
133.13953
  0
VERTEX
  5
179
  8
Layer_0
  10
148.5697
  20
133.30945
  0
VERTEX
  5
17a
  8
Layer_0
  10
148.69177
  20
133.45801
  0
VERTEX
  5
17b
  8
Layer_0
  10
148.84021
  20
133.58008
  0
VERTEX
  5
17c
  8
Layer_0
  10
149.01001
  20
133.67188
  0
VERTEX
  5
17d
  8
Layer_0
  10
149.19763
  20
133.73035
  0
VERTEX
  5
17e
  8
Layer_0
  10
149.39868
  20
133.75085
  0
VERTEX
  5
17f
  8
Layer_0
  10
149.60083
  20
133.73035
  0
VERTEX
  5
180
  8
Layer_0
  10
149.78833
  20
133.67188
  0
VERTEX
  5
181
  8
Layer_0
  10
149.95825
  20
133.58008
  0
VERTEX
  5
182
  8
Layer_0
  10
150.10583
  20
133.45801
  0
VERTEX
  5
183
  8
Layer_0
  10
150.22791
  20
133.30945
  0
VERTEX
  5
184
  8
Layer_0
  10
150.32068
  20
133.13953
  0
VERTEX
  5
185
  8
Layer_0
  10
150.37927
  20
132.95215
  0
VERTEX
  5
186
  8
Layer_0
  10
150.3988
  20
132.75085
  0
VERTEX
  5
187
  8
Layer_0
  10
150.37927
  20
132.54871
  0
VERTEX
  5
188
  8
Layer_0
  10
150.32068
  20
132.36133
  0
VERTEX
  5
189
  8
Layer_0
  10
150.22791
  20
132.19128
  0
VERTEX
  5
18a
  8
Layer_0
  10
150.10583
  20
132.04382
  0
VERTEX
  5
18b
  8
Layer_0
  10
149.95825
  20
131.92175
  0
VERTEX
  5
18c
  8
Layer_0
  10
149.78833
  20
131.8291
  0
VERTEX
  5
18d
  8
Layer_0
  10
149.60083
  20
131.77051
  0
VERTEX
  5
18e
  8
Layer_0
  10
149.39868
  20
131.75098
  0
VERTEX
  5
18f
  8
Layer_0
  10
149.19763
  20
131.77051
  0
SEQEND
  0
POLYLINE
  5
191
  8
Layer_0
  62
0
  66
1
  10
0
  20
0
  30
0
  0
VERTEX
  5
191
  8
Layer_0
  10
109.69678
  20
131.56628
  0
VERTEX
  5
192
  8
Layer_0
  10
109.50818
  20
131.6239
  0
VERTEX
  5
193
  8
Layer_0
  10
109.33826
  20
131.71667
  0
VERTEX
  5
194
  8
Layer_0
  10
109.1908
  20
131.83875
  0
VERTEX
  5
195
  8
Layer_0
  10
109.06873
  20
131.98621
  0
VERTEX
  5
196
  8
Layer_0
  10
108.97595
  20
132.15625
  0
VERTEX
  5
197
  8
Layer_0
  10
108.91833
  20
132.34363
  0
VERTEX
  5
198
  8
Layer_0
  10
108.89783
  20
132.5459
  0
VERTEX
  5
199
  8
Layer_0
  10
108.91833
  20
132.74707
  0
VERTEX
  5
19a
  8
Layer_0
  10
108.97595
  20
132.93445
  0
VERTEX
  5
19b
  8
Layer_0
  10
109.06873
  20
133.10437
  0
VERTEX
  5
19c
  8
Layer_0
  10
109.1908
  20
133.25281
  0
VERTEX
  5
19d
  8
Layer_0
  10
109.33826
  20
133.375
  0
VERTEX
  5
19e
  8
Layer_0
  10
109.50818
  20
133.46667
  0
VERTEX
  5
19f
  8
Layer_0
  10
109.69678
  20
133.52527
  0
VERTEX
  5
1a0
  8
Layer_0
  10
109.89795
  20
133.5459
  0
VERTEX
  5
1a1
  8
Layer_0
  10
110.099
  20
133.52527
  0
VERTEX
  5
1a2
  8
Layer_0
  10
110.28748
  20
133.46667
  0
VERTEX
  5
1a3
  8
Layer_0
  10
110.45642
  20
133.375
  0
VERTEX
  5
1a4
  8
Layer_0
  10
110.60498
  20
133.25281
  0
VERTEX
  5
1a5
  8
Layer_0
  10
110.72705
  20
133.10437
  0
VERTEX
  5
1a6
  8
Layer_0
  10
110.81885
  20
132.93445
  0
VERTEX
  5
1a7
  8
Layer_0
  10
110.87744
  20
132.74707
  0
VERTEX
  5
1a8
  8
Layer_0
  10
110.89783
  20
132.5459
  0
VERTEX
  5
1a9
  8
Layer_0
  10
110.87744
  20
132.34363
  0
VERTEX
  5
1aa
  8
Layer_0
  10
110.81885
  20
132.15625
  0
VERTEX
  5
1ab
  8
Layer_0
  10
110.72705
  20
131.98621
  0
VERTEX
  5
1ac
  8
Layer_0
  10
110.60498
  20
131.83875
  0
VERTEX
  5
1ad
  8
Layer_0
  10
110.45642
  20
131.71667
  0
VERTEX
  5
1ae
  8
Layer_0
  10
110.28748
  20
131.6239
  0
VERTEX
  5
1af
  8
Layer_0
  10
110.099
  20
131.56628
  0
VERTEX
  5
1b0
  8
Layer_0
  10
109.89795
  20
131.54578
  0
VERTEX
  5
1b1
  8
Layer_0
  10
109.69678
  20
131.56628
  0
SEQEND
  0
POLYLINE
  5
1b3
  8
Layer_1
  62
1
  66
1
  10
0
  20
0
  30
0
  0
VERTEX
  5
1b3
  8
Layer_1
  10
173.1304
  20
128.36121
  0
VERTEX
  5
1b4
  8
Layer_1
  10
126.33035
  20
128.36121
  0
VERTEX
  5
1b5
  8
Layer_1
  10
126.33035
  20
93.7612
  0
VERTEX
  5
1b6
  8
Layer_1
  10
173.1304
  20
93.7612
  0
VERTEX
  5
1b7
  8
Layer_1
  10
173.1304
  20
128.36121
  0
SEQEND
  0
POLYLINE
  5
1b9
  8
Layer_0
  62
0
  66
1
  10
0
  20
0
  30
0
  0
VERTEX
  5
1b9
  8
Layer_0
  10
149.37744
  20
60.701294
  0
VERTEX
  5
1ba
  8
Layer_0
  10
148.98706
  20
60.863037
  0
VERTEX
  5
1bb
  8
Layer_0
  10
148.71606
  20
61.129761
  0
VERTEX
  5
1bc
  8
Layer_0
  10
148.55188
  20
61.514038
  0
VERTEX
  5
1bd
  8
Layer_0
  10
148.5343
  20
61.684692
  0
VERTEX
  5
1be
  8
Layer_0
  10
148.55176
  20
61.853882
  0
VERTEX
  5
1bf
  8
Layer_0
  10
148.71606
  20
62.238281
  0
VERTEX
  5
1c0
  8
Layer_0
  10
148.98706
  20
62.505005
  0
VERTEX
  5
1c1
  8
Layer_0
  10
149.37744
  20
62.666748
  0
VERTEX
  5
1c2
  8
Layer_0
  10
149.54932
  20
62.68396
  0
VERTEX
  5
1c3
  8
Layer_0
  10
149.72253
  20
62.666748
  0
VERTEX
  5
1c4
  8
Layer_0
  10
150.1123
  20
62.505249
  0
VERTEX
  5
1c5
  8
Layer_0
  10
150.38245
  20
62.238281
  0
VERTEX
  5
1c6
  8
Layer_0
  10
150.5343
  20
61.885376
  0
VERTEX
  5
1c7
  8
Layer_0
  10
150.5343
  20
61.482788
  0
VERTEX
  5
1c8
  8
Layer_0
  10
150.38245
  20
61.129761
  0
VERTEX
  5
1c9
  8
Layer_0
  10
150.1123
  20
60.862793
  0
VERTEX
  5
1ca
  8
Layer_0
  10
149.72253
  20
60.701294
  0
VERTEX
  5
1cb
  8
Layer_0
  10
149.54932
  20
60.684082
  0
VERTEX
  5
1cc
  8
Layer_0
  10
149.37744
  20
60.701294
  0
SEQEND
  0
POLYLINE
  5
1ce
  8
Layer_1
  62
1
  66
1
  10
0
  20
0
  30
0
  0
VERTEX
  5
1ce
  8
Layer_1
  10
198.75299
  20
147.24286
  0
VERTEX
  5
1cf
  8
Layer_1
  10
189.4118
  20
133.76898
  0
VERTEX
  5
1d0
  8
Layer_1
  10
189.39893
  20
133.74847
  0
VERTEX
  5
1d1
  8
Layer_1
  10
189.54279
  20
133.73975
  0
VERTEX
  5
1d2
  8
Layer_1
  10
194.61298
  20
133.71985
  0
VERTEX
  5
1d3
  8
Layer_1
  10
204.11926
  20
133.77356
  0
VERTEX
  5
1d4
  8
Layer_1
  10
217.95874
  20
133.92084
  0
VERTEX
  5
1d5
  8
Layer_1
  10
226.36993
  20
134.06744
  0
VERTEX
  5
1d6
  8
Layer_1
  10
227.01605
  20
134.08301
  0
VERTEX
  5
1d7
  8
Layer_1
  10
211.97162
  20
155.5636
  0
VERTEX
  5
1d8
  8
Layer_1
  10
208.44073
  20
160.48676
  0
VERTEX
  5
1d9
  8
Layer_1
  10
208.2962
  20
160.66595
  0
VERTEX
  5
1da
  8
Layer_1
  10
207.97394
  20
160.25244
  0
VERTEX
  5
1db
  8
Layer_1
  10
204.84857
  20
155.8988
  0
VERTEX
  5
1dc
  8
Layer_1
  10
198.75299
  20
147.24286
  0
SEQEND
  0
POLYLINE
  5
1de
  8
Layer_1
  62
1
  66
1
  10
0
  20
0
  30
0
  0
VERTEX
  5
1de
  8
Layer_1
  10
94.23053
  20
156.81323
  0
VERTEX
  5
1df
  8
Layer_1
  10
98.811279
  20
150.01953
  0
VERTEX
  5
1e0
  8
Layer_1
  10
109.93799
  20
133.45923
  0
VERTEX
  5
1e1
  8
Layer_1
  10
110.164
  20
133.6922
  0
VERTEX
  5
1e2
  8
Layer_1
  10
110.76953
  20
134.46771
  0
VERTEX
  5
1e3
  8
Layer_1
  10
115.51349
  20
141.2049
  0
VERTEX
  5
1e4
  8
Layer_1
  10
128.40936
  20
159.37201
  0
VERTEX
  5
1e5
  8
Layer_1
  10
129.00232
  20
160.26111
  0
VERTEX
  5
1e6
  8
Layer_1
  10
128.19586
  20
160.2887
  0
VERTEX
  5
1e7
  8
Layer_1
  10
117.75885
  20
160.35535
  0
VERTEX
  5
1e8
  8
Layer_1
  10
91.821289
  20
160.36432
  0
VERTEX
  5
1e9
  8
Layer_1
  10
94.23053
  20
156.81323
  0
SEQEND
  0
POLYLINE
  5
1eb
  8
Layer_1
  62
1
  66
1
  10
0
  20
0
  30
0
  0
VERTEX
  5
1eb
  8
Layer_1
  10
89.520996
  20
158.06335
  0
VERTEX
  5
1ec
  8
Layer_1
  10
86.423767
  20
153.25848
  0
VERTEX
  5
1ed
  8
Layer_1
  10
73.000244
  20
132.57379
  0
VERTEX
  5
1ee
  8
Layer_1
  10
103.02942
  20
132.68884
  0
VERTEX
  5
1ef
  8
Layer_1
  10
108.87872
  20
132.76752
  0
VERTEX
  5
1f0
  8
Layer_1
  10
108.61359
  20
133.24548
  0
VERTEX
  5
1f1
  8
Layer_1
  10
107.31268
  20
135.33282
  0
VERTEX
  5
1f2
  8
Layer_1
  10
104.63226
  20
139.44263
  0
VERTEX
  5
1f3
  8
Layer_1
  10
91.622925
  20
158.78284
  0
VERTEX
  5
1f4
  8
Layer_1
  10
90.771423
  20
159.98657
  0
VERTEX
  5
1f5
  8
Layer_1
  10
90.055725
  20
158.90137
  0
VERTEX
  5
1f6
  8
Layer_1
  10
89.520996
  20
158.06335
  0
SEQEND
  0
POLYLINE
  5
1f8
  8
Layer_1
  62
1
  66
1
  10
0
  20
0
  30
0
  0
VERTEX
  5
1f8
  8
Layer_1
  10
168.4281
  20
158.61261
  0
VERTEX
  5
1f9
  8
Layer_1
  10
153.54175
  20
137.42517
  0
VERTEX
  5
1fa
  8
Layer_1
  10
150.59515
  20
133.12628
  0
VERTEX
  5
1fb
  8
Layer_1
  10
150.81567
  20
133.14868
  0
VERTEX
  5
1fc
  8
Layer_1
  10
154.32916
  20
133.23871
  0
VERTEX
  5
1fd
  8
Layer_1
  10
182.81573
  20
133.65753
  0
VERTEX
  5
1fe
  8
Layer_1
  10
187.18451
  20
133.75781
  0
VERTEX
  5
1ff
  8
Layer_1
  10
186.31702
  20
135.06775
  0
VERTEX
  5
200
  8
Layer_1
  10
174.75226
  20
152.21484
  0
VERTEX
  5
201
  8
Layer_1
  10
169.51093
  20
159.95245
  0
VERTEX
  5
202
  8
Layer_1
  10
169.27344
  20
159.71381
  0
VERTEX
  5
203
  8
Layer_1
  10
168.88281
  20
159.23639
  0
VERTEX
  5
204
  8
Layer_1
  10
168.4281
  20
158.61261
  0
SEQEND
  0
POLYLINE
  5
206
  8
Layer_1
  62
1
  66
1
  10
0
  20
0
  30
0
  0
VERTEX
  5
206
  8
Layer_1
  10
128.47766
  20
157.74274
  0
VERTEX
  5
207
  8
Layer_1
  10
126.01135
  20
154.2196
  0
VERTEX
  5
208
  8
Layer_1
  10
110.92352
  20
132.92413
  0
VERTEX
  5
209
  8
Layer_1
  10
111.36975
  20
132.87891
  0
VERTEX
  5
20a
  8
Layer_1
  10
113.01025
  20
132.83344
  0
VERTEX
  5
20b
  8
Layer_1
  10
118.01392
  20
132.83795
  0
VERTEX
  5
20c
  8
Layer_1
  10
146.81799
  20
133.08337
  0
VERTEX
  5
20d
  8
Layer_1
  10
148.26929
  20
133.1377
  0
VERTEX
  5
20e
  8
Layer_1
  10
145.42529
  20
137.3667
  0
VERTEX
  5
20f
  8
Layer_1
  10
130.5144
  20
159.13788
  0
VERTEX
  5
210
  8
Layer_1
  10
129.99219
  20
159.83185
  0
VERTEX
  5
211
  8
Layer_1
  10
129.97931
  20
159.81793
  0
VERTEX
  5
212
  8
Layer_1
  10
129.09424
  20
158.62103
  0
VERTEX
  5
213
  8
Layer_1
  10
128.47766
  20
157.74274
  0
SEQEND
  0
POLYLINE
  5
215
  8
Layer_1
  62
1
  66
1
  10
0
  20
0
  30
0
  0
VERTEX
  5
215
  8
Layer_1
  10
148.33295
  20
61.901489
  0
VERTEX
  5
216
  8
Layer_1
  10
130.77777
  20
92.497314
  0
VERTEX
  5
217
  8
Layer_1
  10
125.04492
  20
92.480286
  0
VERTEX
  5
218
  8
Layer_1
  10
125.10303
  20
102.83655
  0
VERTEX
  5
219
  8
Layer_1
  10
109.40289
  20
131.75439
  0
VERTEX
  5
21a
  8
Layer_1
  10
73.260254
  20
131.57147
  0
VERTEX
  5
21b
  8
Layer_1
  10
148.33295
  20
61.901489
  0
SEQEND
  0
POLYLINE
  5
21d
  8
Layer_1
  62
1
  66
1
  10
0
  20
0
  30
0
  0
VERTEX
  5
21d
  8
Layer_1
  10
131.89832
  20
92.500427
  0
VERTEX
  5
21e
  8
Layer_1
  10
148.961
  20
92.480408
  0
VERTEX
  5
21f
  8
Layer_1
  10
149.03046
  20
62.84259
  0
VERTEX
  5
220
  8
Layer_1
  10
131.89832
  20
92.500427
  0
SEQEND
  0
POLYLINE
  5
222
  8
Layer_1
  62
1
  66
1
  10
0
  20
0
  30
0
  0
VERTEX
  5
222
  8
Layer_1
  10
150.02002
  20
62.84552
  0
VERTEX
  5
223
  8
Layer_1
  10
150.01361
  20
86.531921
  0
VERTEX
  5
224
  8
Layer_1
  10
149.97687
  20
92.488953
  0
VERTEX
  5
225
  8
Layer_1
  10
167.08521
  20
92.453247
  0
VERTEX
  5
226
  8
Layer_1
  10
150.02002
  20
62.84552
  0
SEQEND
  0
POLYLINE
  5
228
  8
Layer_1
  62
1
  66
1
  10
0
  20
0
  30
0
  0
VERTEX
  5
228
  8
Layer_1
  10
150.71503
  20
61.927368
  0
VERTEX
  5
229
  8
Layer_1
  10
168.18097
  20
92.441345
  0
VERTEX
  5
22a
  8
Layer_1
  10
174.40668
  20
92.431702
  0
VERTEX
  5
22b
  8
Layer_1
  10
174.34924
  20
102.67487
  0
VERTEX
  5
22c
  8
Layer_1
  10
189.03094
  20
132.64185
  0
VERTEX
  5
22d
  8
Layer_1
  10
226.84052
  20
133.02179
  0
VERTEX
  5
22e
  8
Layer_1
  10
150.71503
  20
61.927368
  0
SEQEND
  0
POLYLINE
  5
230
  8
Layer_1
  62
1
  66
1
  10
0
  20
0
  30
0
  0
VERTEX
  5
230
  8
Layer_1
  10
148.93311
  20
132.01617
  0
VERTEX
  5
231
  8
Layer_1
  10
148.91614
  20
129.60791
  0
VERTEX
  5
232
  8
Layer_1
  10
125.09436
  20
129.61261
  0
VERTEX
  5
233
  8
Layer_1
  10
125.10114
  20
105.00867
  0
VERTEX
  5
234
  8
Layer_1
  10
110.59875
  20
131.87451
  0
VERTEX
  5
235
  8
Layer_1
  10
148.93311
  20
132.01617
  0
SEQEND
  0
POLYLINE
  5
237
  8
Layer_1
  62
1
  66
1
  10
0
  20
0
  30
0
  0
VERTEX
  5
237
  8
Layer_1
  10
150.00269
  20
132.04443
  0
VERTEX
  5
238
  8
Layer_1
  10
149.98639
  20
129.6145
  0
VERTEX
  5
239
  8
Layer_1
  10
174.33777
  20
129.63251
  0
VERTEX
  5
23a
  8
Layer_1
  10
174.40082
  20
105.10608
  0
VERTEX
  5
23b
  8
Layer_1
  10
187.8515
  20
132.66132
  0
VERTEX
  5
23c
  8
Layer_1
  10
150.00269
  20
132.04443
  0
SEQEND
  0
POLYLINE
  5
23e
  8
Layer_1
  62
1
  66
1
  10
0
  20
0
  30
0
  0
VERTEX
  5
23e
  8
Layer_1
  10
206.59198
  20
161.08392
  0
VERTEX
  5
23f
  8
Layer_1
  10
197.80768
  20
160.93744
  0
VERTEX
  5
240
  8
Layer_1
  10
179.84521
  20
160.67639
  0
VERTEX
  5
241
  8
Layer_1
  10
176.90356
  20
160.62018
  0
VERTEX
  5
242
  8
Layer_1
  10
170.35681
  20
160.57849
  0
VERTEX
  5
243
  8
Layer_1
  10
186.65979
  20
136.36334
  0
VERTEX
  5
244
  8
Layer_1
  10
188.24402
  20
133.99231
  0
VERTEX
  5
245
  8
Layer_1
  10
193.86041
  20
142.07629
  0
VERTEX
  5
246
  8
Layer_1
  10
207.12488
  20
161.10803
  0
VERTEX
  5
247
  8
Layer_1
  10
207.03363
  20
161.11865
  0
VERTEX
  5
248
  8
Layer_1
  10
206.65576
  20
161.10583
  0
VERTEX
  5
249
  8
Layer_1
  10
206.59198
  20
161.08392
  0
SEQEND
  0
POLYLINE
  5
24b
  8
Layer_1
  62
1
  66
1
  10
0
  20
0
  30
0
  0
VERTEX
  5
24b
  8
Layer_1
  10
208.10156
  20
161.95459
  0
VERTEX
  5
24c
  8
Layer_1
  10
208.63354
  20
161.85846
  0
VERTEX
  5
24d
  8
Layer_1
  10
208.95795
  20
161.75531
  0
VERTEX
  5
24e
  8
Layer_1
  10
227.43286
  20
135.26349
  0
VERTEX
  5
24f
  8
Layer_1
  10
228.12146
  20
134.15082
  0
VERTEX
  5
250
  8
Layer_1
  10
228.36823
  20
133.66144
  0
VERTEX
  5
251
  8
Layer_1
  10
228.41815
  20
133.47382
  0
VERTEX
  5
252
  8
Layer_1
  10
228.37683
  20
133.3009
  0
VERTEX
  5
253
  8
Layer_1
  10
228.18799
  20
132.979
  0
VERTEX
  5
254
  8
Layer_1
  10
228.04071
  20
132.78412
  0
VERTEX
  5
255
  8
Layer_1
  10
227.67786
  20
132.36847
  0
VERTEX
  5
256
  8
Layer_1
  10
227.23926
  20
131.93445
  0
VERTEX
  5
257
  8
Layer_1
  10
218.20044
  20
123.47955
  0
VERTEX
  5
258
  8
Layer_1
  10
211.41382
  20
117.08368
  0
VERTEX
  5
259
  8
Layer_1
  10
209.31848
  20
115.13287
  0
VERTEX
  5
25a
  8
Layer_1
  10
202.70679
  20
108.97211
  0
VERTEX
  5
25b
  8
Layer_1
  10
191.51776
  20
98.493286
  0
VERTEX
  5
25c
  8
Layer_1
  10
186.42737
  20
93.702637
  0
VERTEX
  5
25d
  8
Layer_1
  10
184.04456
  20
91.490417
  0
VERTEX
  5
25e
  8
Layer_1
  10
154.8559
  20
64.176941
  0
VERTEX
  5
25f
  8
Layer_1
  10
150.88397
  20
60.420654
  0
VERTEX
  5
260
  8
Layer_1
  10
150.03717
  20
59.704407
  0
VERTEX
  5
261
  8
Layer_1
  10
149.66681
  20
59.454224
  0
VERTEX
  5
262
  8
Layer_1
  10
149.45703
  20
59.401733
  0
VERTEX
  5
263
  8
Layer_1
  10
148.72003
  20
60.035583
  0
VERTEX
  5
264
  8
Layer_1
  10
142.92029
  20
65.361206
  0
VERTEX
  5
265
  8
Layer_1
  10
128.68939
  20
78.601868
  0
VERTEX
  5
266
  8
Layer_1
  10
117.26825
  20
89.253296
  0
VERTEX
  5
267
  8
Layer_1
  10
100.37048
  20
104.95569
  0
VERTEX
  5
268
  8
Layer_1
  10
74.787964
  20
128.76001
  0
VERTEX
  5
269
  8
Layer_1
  10
72.336731
  20
130.97882
  0
VERTEX
  5
26a
  8
Layer_1
  10
71.832825
  20
131.5144
  0
VERTEX
  5
26b
  8
Layer_1
  10
71.636536
  20
131.79785
  0
VERTEX
  5
26c
  8
Layer_1
  10
71.581604
  20
131.96729
  0
VERTEX
  5
26d
  8
Layer_1
  10
71.673035
  20
132.23981
  0
VERTEX
  5
26e
  8
Layer_1
  10
72.061279
  20
132.96533
  0
VERTEX
  5
26f
  8
Layer_1
  10
72.84198
  20
134.24109
  0
VERTEX
  5
270
  8
Layer_1
  10
76.296753
  20
139.54175
  0
VERTEX
  5
271
  8
Layer_1
  10
87.250488
  20
156.4397
  0
VERTEX
  5
272
  8
Layer_1
  10
90.412598
  20
161.2934
  0
VERTEX
  5
273
  8
Layer_1
  10
117.86304
  20
161.35114
  0
VERTEX
  5
274
  8
Layer_1
  10
128.47491
  20
161.29474
  0
VERTEX
  5
275
  8
Layer_1
  10
130.09973
  20
161.24536
  0
VERTEX
  5
276
  8
Layer_1
  10
130.22791
  20
161.2182
  0
VERTEX
  5
277
  8
Layer_1
  10
130.79877
  20
160.46027
  0
VERTEX
  5
278
  8
Layer_1
  10
133.85883
  20
156.08752
  0
VERTEX
  5
279
  8
Layer_1
  10
149.41437
  20
133.41852
  0
VERTEX
  5
27a
  8
Layer_1
  10
164.39038
  20
154.70782
  0
VERTEX
  5
27b
  8
Layer_1
  10
168.61212
  20
160.82135
  0
VERTEX
  5
27c
  8
Layer_1
  10
168.83459
  20
161.16992
  0
VERTEX
  5
27d
  8
Layer_1
  10
169.05219
  20
161.31512
  0
VERTEX
  5
27e
  8
Layer_1
  10
169.31592
  20
161.42346
  0
VERTEX
  5
27f
  8
Layer_1
  10
169.70605
  20
161.50702
  0
VERTEX
  5
280
  8
Layer_1
  10
171.03381
  20
161.58014
  0
VERTEX
  5
281
  8
Layer_1
  10
176.52246
  20
161.7077
  0
VERTEX
  5
282
  8
Layer_1
  10
205.60211
  20
162.12085
  0
VERTEX
  5
283
  8
Layer_1
  10
206.34216
  20
162.14948
  0
VERTEX
  5
284
  8
Layer_1
  10
206.41229
  20
162.16907
  0
VERTEX
  5
285
  8
Layer_1
  10
206.73676
  20
162.1604
  0
VERTEX
  5
286
  8
Layer_1
  10
208.10156
  20
161.95459
  0
SEQEND
  0
ENDSEC
  0
EOF
